<?xml version="1.0" encoding="UTF-8" standalone="no"?>
<svg
    id="Layer_1"
    viewBox="0 0 34.102146 39.599998"
    version="1.1"
    width="34.102146"
    height="39.599998"
    sodipodi:docname="adults-only.svg"
    inkscape:version="1.1.2 (0a00cf5339, 2022-02-04)"
    xmlns:inkscape="http://www.inkscape.org/namespaces/inkscape"
    xmlns:sodipodi="http://sodipodi.sourceforge.net/DTD/sodipodi-0.dtd"
    xmlns="http://www.w3.org/2000/svg"
    xmlns:svg="http://www.w3.org/2000/svg">
    <defs
        id="defs219" />
    <sodipodi:namedview
        id="namedview217"
        pagecolor="#ffffff"
        bordercolor="#666666"
        borderopacity="1.0"
        inkscape:pageshadow="2"
        inkscape:pageopacity="0.0"
        inkscape:pagecheckerboard="0"
        showgrid="false"
        inkscape:zoom="22.045455"
        inkscape:cx="17.032989"
        inkscape:cy="19.799999"
        inkscape:window-width="2560"
        inkscape:window-height="1440"
        inkscape:window-x="0"
        inkscape:window-y="0"
        inkscape:window-maximized="1"
        inkscape:current-layer="Layer_1" />
    <g
        id="Layer_3"
        transform="translate(-169.04578,-52.049999)"
        style="fill:#ff7c7c">
        <path
            d="m 185.08,89.02 c -3.37,0.18 -5.75,-1.22 -7.9,-2.97 -4.91,-4 -8.27,-8.94 -8.13,-15.53 0.15,-6.84 3.79,-11.52 9.84,-14.37 6.89,-3.25 15.1,-0.82 19.96,4.28 2.37,2.48 3.45,5.63 3.98,8.94 0.59,3.67 0.42,7.32 -1.03,10.81 -1.41,3.39 -3.68,6.15 -7.28,7.09 -3.21,0.84 -6.45,1.9 -9.45,1.76 z m 3.19,-6.62 c 2.38,0.06 3.98,-2.24 3.77,-4.52 -0.14,-1.55 -0.55,-3.08 -1.32,-4.43 -0.7,-1.22 -0.72,-2.31 -0.17,-3.59 0.98,-2.27 1.04,-4.48 -0.03,-6.89 -1.27,-2.89 -4.43,-2.63 -5.71,-0.73 -1.17,1.74 -0.9,3.62 -0.16,5.44 0.45,1.1 1.02,2.16 1.6,3.2 0.31,0.55 0.32,0.98 0.04,1.55 -0.69,1.43 -1.35,2.88 -1.92,4.36 -1.25,3.23 1.42,5.66 3.9,5.62 z M 176.09,72.24 c 0,1.15 -0.05,2.31 0.01,3.46 0.1,1.7 0.07,3.42 0.62,5.08 0.32,0.98 1.07,1.52 1.91,1.51 0.98,0 1.11,-0.98 1.16,-1.8 0.02,-0.32 0.02,-0.64 0.02,-0.96 -0.02,-3.19 0.02,-6.38 -0.1,-9.56 -0.1,-2.45 0.19,-4.9 -0.11,-7.35 -0.07,-0.58 -0.23,-1.18 -0.9,-1.21 -0.7,-0.03 -1.54,-0.22 -1.82,0.85 -0.21,0.81 -0.1,1.71 -0.31,2.42 -0.75,2.51 -0.31,5.04 -0.48,7.55 z m 19.92,3.06 c 0.1,0.61 0.13,1.61 1.07,1.7 0.98,0.1 1.18,-0.88 1.34,-1.67 0.05,-0.23 0.06,-0.49 0,-0.71 -0.37,-1.3 0.23,-1.85 1.45,-1.98 0.72,-0.08 1.41,-0.34 1.37,-1.19 -0.04,-0.85 -0.79,-1 -1.48,-1.09 -0.23,-0.03 -0.48,-0.03 -0.72,0 -0.74,0.1 -1.22,-0.15 -1.43,-0.91 -0.19,-0.64 -0.44,-1.27 -0.7,-1.89 -0.14,-0.34 -0.38,-0.63 -0.83,-0.47 -0.38,0.14 -0.65,0.44 -0.53,0.82 0.57,1.85 -0.3,2.36 -1.99,2.44 -0.81,0.04 -0.9,0.67 -0.29,1.25 0.5,0.48 1.12,0.76 1.8,0.89 0.88,0.17 1.19,0.71 1.08,1.55 -0.05,0.36 -0.08,0.71 -0.13,1.24 z"
            id="path52"
            style="fill:#ff7c7c" />
        <path
            d="m 189.7,78.19 c 0,0.78 -0.14,1.36 -0.82,1.58 -0.62,0.2 -1.26,0.28 -1.82,-0.16 -0.55,-0.45 -0.73,-1.08 -0.45,-1.71 0.43,-0.98 0.92,-1.93 1.45,-2.86 0.26,-0.46 0.63,-0.46 0.87,0.08 0.46,1.03 0.64,2.12 0.77,3.07 z"
            id="path54"
            style="fill:#ff7c7c" />
        <path
            d="m 188.09,68.43 c -1.01,-1.25 -1.27,-2.61 -1.51,-3.96 -0.09,-0.52 0.13,-1.06 0.64,-1.31 0.71,-0.35 1.42,-0.04 2.05,0.26 0.58,0.28 0.28,0.82 0.18,1.27 -0.28,1.27 -0.77,2.45 -1.36,3.74 z"
            id="path56"
            style="fill:#ff7c7c" />
    </g>
</svg>
