<?xml version="1.0" encoding="UTF-8" standalone="no"?>
<svg
   id="Layer_1"
   viewBox="0 0 38.652497 39.599998"
   version="1.1"
   sodipodi:docname="Nybegynner.svg"
   width="38.652496"
   height="39.599998"
   inkscape:version="1.2.2 (b0a84865, 2022-12-01)"
   xmlns:inkscape="http://www.inkscape.org/namespaces/inkscape"
   xmlns:sodipodi="http://sodipodi.sourceforge.net/DTD/sodipodi-0.dtd"
   xmlns="http://www.w3.org/2000/svg"
   xmlns:svg="http://www.w3.org/2000/svg">
  <sodipodi:namedview
     id="namedview571"
     pagecolor="#ffffff"
     bordercolor="#000000"
     borderopacity="0.25"
     inkscape:showpageshadow="2"
     inkscape:pageopacity="0.0"
     inkscape:pagecheckerboard="0"
     inkscape:deskcolor="#d1d1d1"
     showgrid="false"
     inkscape:zoom="1.7583072"
     inkscape:cx="46.635763"
     inkscape:cy="15.924407"
     inkscape:window-width="1309"
     inkscape:window-height="456"
     inkscape:window-x="0"
     inkscape:window-y="25"
     inkscape:window-maximized="0"
     inkscape:current-layer="Layer_1" />
  <defs
     id="defs561">
    <style
       id="style559">
      .cls-1 {
        fill: none;
      }
    </style>
  </defs>
  <g
     id="Layer_9"
     transform="translate(-68.317903,-50.970001)">
    <path
       d="m 84.37,85.16 c 0.62,-2.58 0.47,-5.22 0.67,-7.83 0.08,-1.02 -0.22,-1.48 -1.27,-1.53 -3.75,-0.2 -6.81,-1.86 -9.62,-4.27 -2.65,-2.28 -4.13,-5.19 -5.27,-8.37 -0.37,-1.03 -0.38,-2.12 -0.51,-3.18 -0.34,-2.81 0.99,-4.41 3.82,-4.25 2.91,0.17 5.75,0.85 8.26,2.48 0.9,0.58 1.84,1.12 2.8,1.61 2.99,1.54 4.5,4.28 5.44,7.26 1.39,4.41 1.5,9.02 1.31,13.6 -0.09,2.01 0.54,3.94 0.35,5.94 -0.12,1.26 -0.22,2.54 -1.4,3.24 -1.64,0.97 -3.21,0.33 -3.92,-1.53 -0.38,-1.01 -0.65,-2.06 -0.65,-3.16 z"
       id="path563" />
    <path
       d="m 102.93,51.27 c 3.55,-0.29 4.3,2.17 3.97,4.8 -0.63,5 -3.27,8.72 -7,11.78 -1.46,1.2 -3.09,2.27 -4.96,2.79 -2.4,0.66 -3.3,0 -3.36,-2.46 -0.06,-2.48 -1.48,-4.31 -2.87,-6.16 -1.66,-2.21 -1.57,-2.73 0.35,-4.74 3.79,-3.98 8.52,-5.69 13.87,-6 z"
       id="path565" />
    <rect
       class="cls-1"
       x="76.029999"
       y="50.970001"
       width="19.879999"
       height="39.599998"
       id="rect567" />
  </g>
</svg>
