<svg
    id="Layer_1"
    viewBox="0 0 26.856856 39.599998"
    xmlns="http://www.w3.org/2000/svg"
    xmlns:svg="http://www.w3.org/2000/svg">
    <g
        id="Layer_7"
        transform="translate(-26.659989,-49.189999)"
        style="fill: $CCD1E9">
        <path
            fill="#CCD1E9"
            d="
    m 39.61,49.63 c 3.79,-0.12 5.22,2.65 5.42,5.54 0.12,1.8 -2.83,4.43 -4.67,4.37 -3.33,-0.11 -5.46,-2.36 -5.35,-5.64 0.09,-2.56 2.02,-4.35 4.6,-4.27 z"
            id=" path225"/>
        <path
            fill="#CCD1E9"
            d=" m 33.68,71.21 c 0.94,-2.93 -0.49,-4.99 -2.74,-6.85 -1.52,-1.26 -3,-2.65 -3.73,-4.6 -0.08,-0.22 -0.21,-0.43 -0.29,-0.66 -0.53,-1.4 -0.23,-2.79 0.72,-3.33 1.16,-0.67 2.59,-0.24 3.54,1.05 1.45,1.96 2.85,4.02 5.03,5.2 2.4,1.3 4.8,0.96 7.28,-0.2 2.18,-1.02 3.07,-3.05 4.43,-4.72 0.64,-0.79 1.38,-1.33 2.37,-1.47 1.22,-0.18 2.25,0.24 2.88,1.29 0.67,1.13 0.27,2.29 -0.36,3.27 -1.33,2.06 -3,3.83 -5.06,5.17 -1.01,0.66 -1.46,1.48 -1.59,2.73 -0.4,3.98 0.09,7.95 0,11.93 -0.04,1.51 0,3.03 0.03,4.54 0.02,1.08 -0.21,2.06 -0.96,2.87 -0.67,0.73 -1.51,0.82 -2.42,0.61 -0.8,-0.18 -1.1,-0.77 -1.34,-1.51 -0.74,-2.21 -0.5,-4.5 -0.67,-6.76 -0.04,-0.55 0.21,-1.13 -0.73,-1.12 -0.88,0 -0.95,0.52 -0.95,1.18 0.02,1.87 -0.02,3.74 -0.17,5.62 -0.15,1.94 -1.18,3 -3.01,2.88 -1.03,-0.07 -2.27,-1.87 -2.27,-3.16 0.02,-4.62 0,-9.23 0,-13.98 z"
            id=" path227" />
    </g>
</svg>
