<svg width="24" height="24" viewBox="0 0 24 24" fill="none" xmlns="http://www.w3.org/2000/svg">
<path d="M2 5.38C2 4.61669 2.61316 4 3.37211 4H19.8375C20.5964 4 21.2096 4.61669 21.2096 5.38C21.2096 6.14331 20.5964 6.76 19.8375 6.76H3.37211C2.61316 6.76 2 6.14331 2 5.38ZM2 12.28C2 11.5167 2.61316 10.9 3.37211 10.9H19.8375C20.5964 10.9 21.2096 11.5167 21.2096 12.28C21.2096 13.0433 20.5964 13.66 19.8375 13.66H3.37211C2.61316 13.66 2 13.0433 2 12.28ZM21.2096 19.18C21.2096 19.9433 20.5964 20.56 19.8375 20.56H3.37211C2.61316 20.56 2 19.9433 2 19.18C2 18.4167 2.61316 17.8 3.37211 17.8H19.8375C20.5964 17.8 21.2096 18.4167 21.2096 19.18Z" fill="currentColor"/>
</svg>
