<svg width="auto" height="auto" viewBox="0 0 24 24" fill="none" xmlns="http://www.w3.org/2000/svg">
<path d="M11.7838 1.92188C13.7575 1.85939 14.5022 3.30188 14.6063 4.80686C14.6688 5.74422 13.1326 7.11381 12.1744 7.08256C10.4403 7.02528 9.33107 5.85358 9.38835 4.14551C9.43522 2.81237 10.4403 1.88022 11.7838 1.92188Z" fill="currentColor"/>
<path d="M8.69575 13.1599C9.18526 11.634 8.44058 10.5613 7.26888 9.59269C6.47733 8.93654 5.70661 8.21269 5.32646 7.19722C5.2848 7.08265 5.2171 6.97329 5.17544 6.85352C4.89944 6.12446 5.05567 5.40061 5.55038 5.1194C6.15446 4.7705 6.89914 4.99442 7.39386 5.6662C8.14896 6.68688 8.87801 7.75963 10.0133 8.37412C11.2631 9.05111 12.5129 8.87405 13.8044 8.26997C14.9396 7.7388 15.4031 6.68167 16.1113 5.81201C16.4446 5.40061 16.83 5.1194 17.3455 5.0465C17.9808 4.95276 18.5172 5.17148 18.8453 5.71827C19.1942 6.30672 18.9859 6.9108 18.6578 7.42114C17.9652 8.4939 17.0955 9.41563 16.0228 10.1134C15.4968 10.4571 15.2625 10.8842 15.1948 11.5351C14.9865 13.6077 15.2416 15.6751 15.1948 17.7477C15.1739 18.5341 15.1948 19.3256 15.2104 20.1119C15.2208 20.6744 15.101 21.1847 14.7105 21.6065C14.3616 21.9867 13.9241 22.0335 13.4502 21.9242C13.0336 21.8304 12.8774 21.5232 12.7524 21.1378C12.3671 19.987 12.4921 18.7944 12.4035 17.6175C12.3827 17.3311 12.5129 17.0291 12.0234 17.0343C11.5651 17.0343 11.5287 17.3051 11.5287 17.6488C11.5391 18.6226 11.5182 19.5964 11.4401 20.5754C11.362 21.5857 10.8256 22.1377 9.87266 22.0752C9.33628 22.0387 8.69054 21.1014 8.69054 20.4296C8.70096 18.0237 8.69054 15.623 8.69054 13.1494L8.69575 13.1599Z" fill="currentColor"/>
</svg>
