<svg width="auto" height="auto" viewBox="0 0 24 24" fill="none" xmlns="http://www.w3.org/2000/svg">
<path d="M13.971 15.9457C13.971 16.556 13.971 17.1611 13.971 17.7713C13.971 18.8709 13.7027 19.1708 12.4348 19.2813C11.9507 19.3234 11.4825 19.1498 11.009 19.0551C10.5618 18.9709 10.3776 18.692 10.3882 18.2501C10.4197 16.8033 10.1882 15.3617 10.3566 13.9202C10.4039 13.5046 10.3303 13.3836 9.8673 13.4151C8.82033 13.494 7.7681 13.3362 6.72638 13.352C5.34796 13.3783 3.96427 13.2415 2.58584 13.4204C1.73354 13.5309 1.47048 13.2468 1.51257 12.3997C1.53887 11.7947 1.63357 11.1897 1.6704 10.5846C1.69145 10.2006 1.88611 10.0164 2.24913 9.97435C2.39644 9.95856 2.54376 9.88491 2.68055 9.90595C3.95901 10.0901 5.23221 9.81125 6.51068 9.89017C7.61552 9.95856 8.70984 9.62185 9.83047 9.63764C10.1935 9.63764 10.1304 9.23779 10.1461 8.97999C10.204 7.68576 10.2672 6.39151 10.2882 5.09728C10.2987 4.55012 10.4829 4.27654 11.0563 4.2818C11.5982 4.2818 12.1454 4.21867 12.6925 4.2134C13.708 4.20288 13.9815 4.49751 13.9394 5.52343C13.8974 6.50726 13.8395 7.49109 13.7921 8.47492C13.7816 8.68537 13.7921 8.89581 13.7921 9.10626C13.7921 9.56924 13.9289 9.78495 14.4813 9.81651C16.6542 9.927 18.8271 9.95856 20.9999 9.90069C21.3314 9.89017 21.6681 9.94278 21.9996 9.99013C22.231 10.027 22.331 10.169 22.3573 10.4268C22.431 11.2265 22.2784 12.0157 22.2942 12.8101C22.2994 13.1363 22.0837 13.2836 21.7786 13.3467C20.6948 13.573 19.611 13.4993 18.5219 13.3888C17.0961 13.2468 15.6704 13.3678 14.2446 13.373C13.9026 13.373 13.9237 13.6519 13.9237 13.8781C13.9131 14.5673 13.9237 15.2618 13.9237 15.951C13.9394 15.951 13.9552 15.951 13.971 15.951V15.9457Z" fill="currentColor"/>
<path d="M7.59425 19.1286C6.91556 19.0339 6.23687 19.2654 5.5424 19.2233C5.24777 19.2075 4.90579 19.197 4.80583 18.8655C4.71639 18.5604 5.05311 18.4709 5.24777 18.3289C6.31053 17.5502 7.3575 16.7558 8.44656 16.014C9.07264 15.5826 9.23573 15.7088 9.38831 16.4401C9.54088 17.1872 9.35674 17.8975 9.27256 18.6182C9.23573 18.9497 8.9569 19.0444 8.67806 19.076C8.32556 19.1128 7.96779 19.1128 7.59425 19.1338V19.1286Z" fill="currentColor"/>
<path d="M18.2899 19.1181C17.485 19.3654 16.4801 19.1023 15.4857 19.176C14.9912 19.2128 14.7807 18.7919 14.8807 18.3027C14.9701 17.8607 14.9017 17.3925 14.9175 16.9348C14.9333 16.5191 14.8807 15.9194 15.1753 15.7668C15.512 15.5932 15.9014 16.0719 16.2118 16.3297C17.1062 17.0873 17.9637 17.8818 19.0212 18.4184C19.2212 18.5184 19.4895 18.6604 19.4053 18.9235C19.3211 19.197 19.016 19.0971 18.795 19.1076C18.6898 19.1129 18.5846 19.1076 18.2952 19.1076L18.2899 19.1181Z" fill="currentColor"/>
<path d="M14.8125 6.40203C14.8599 5.77596 14.9125 5.17093 14.9441 4.56064C14.9651 4.10818 15.2597 3.93983 15.6175 4.01874C16.7171 4.26075 17.8377 4.02927 18.9373 4.19236C19.1004 4.21867 19.3161 4.16079 19.3845 4.34493C19.4687 4.5659 19.2161 4.59221 19.1004 4.69217C18.1587 5.49186 17.1853 6.25472 16.1226 6.89132C16.07 6.92289 16.0226 6.97024 15.9647 6.99654C15.6438 7.17016 15.2545 7.50687 14.9756 7.37535C14.6547 7.22803 14.8862 6.72296 14.8125 6.39677V6.40203Z" fill="currentColor"/>
<path d="M9.43562 5.44981C9.39879 5.88123 9.34618 6.44417 9.31461 7.00711C9.28831 7.47009 9.08838 7.57005 8.71484 7.32277C8.35182 7.0755 7.98354 6.82823 7.65208 6.54413C6.905 5.90227 6.14213 5.28672 5.28982 4.78691C5.12146 4.68695 4.8321 4.60803 4.86893 4.37654C4.91102 4.10296 5.21616 4.19766 5.4003 4.1924C6.37888 4.15031 7.36272 4.10822 8.34129 4.11348C9.34091 4.11875 9.44614 4.2608 9.43562 5.45507V5.44981Z" fill="currentColor"/>
<path d="M8.30462 14.1623C8.55715 14.1991 8.88861 14.0781 8.98857 14.4411C9.07801 14.762 8.84126 14.9409 8.60976 15.0988C7.0735 16.151 5.52146 17.1769 4.03255 18.2975C3.80106 18.4711 3.52748 18.6027 3.2539 18.7079C2.84352 18.8605 2.64886 18.5501 2.45946 18.266C2.24901 17.9556 2.49103 17.7925 2.70147 17.6662C4.14829 16.7876 5.44254 15.667 6.96302 14.9041C7.41548 14.6726 7.66802 14.0781 8.29936 14.1675L8.30462 14.1623Z" fill="currentColor"/>
<path d="M15.9753 8.76955C15.7122 8.75903 15.4965 8.73798 15.4124 8.49597C15.3334 8.275 15.4965 8.14874 15.6175 8.00669C16.07 7.45427 16.7224 7.18595 17.3064 6.82293C18.4323 6.12846 19.474 5.30772 20.521 4.50803C20.7524 4.33441 20.9734 4.19763 21.268 4.31337C21.5206 4.40807 21.8468 4.45016 21.9152 4.75004C21.9836 5.05519 21.6626 5.14463 21.4785 5.2972C20.1106 6.44413 18.5533 7.33326 17.1117 8.38549C16.754 8.64854 16.3436 8.70642 15.9753 8.76955Z" fill="currentColor"/>
<path d="M7.09396 8.55409C6.40475 8.65931 5.85233 8.41204 5.35252 8.04376C4.66331 7.53869 3.98988 7.00732 3.37958 6.40229C3.19018 6.21289 3.00078 5.99718 2.71667 5.94983C2.49044 5.913 2.30104 5.86039 2.28526 5.59208C2.26421 5.25536 2.40627 4.97652 2.64828 4.75555C2.86925 4.55563 3.06391 4.72399 3.2691 4.83447C4.66331 5.58155 5.68923 6.82844 7.05188 7.61761C7.2518 7.73336 7.4412 7.86488 7.64639 7.96485C7.80948 8.04376 7.96206 8.13846 7.93575 8.32786C7.90419 8.5804 7.66743 8.55409 7.48855 8.56987C7.3465 8.5804 7.19919 8.55935 7.09396 8.54883V8.55409Z" fill="currentColor"/>
<path d="M16.9168 14.3937C17.6797 14.3516 18.2216 14.8356 18.7792 15.2197C19.6947 15.851 20.6101 16.4718 21.5782 17.0242C21.9307 17.2242 22.2253 17.4767 22.0043 17.9292C21.7728 18.4079 21.4256 18.3132 20.9995 18.1501C20.0156 17.7713 19.2633 17.0716 18.4899 16.4034C17.8375 15.8458 17.2062 15.2618 16.417 14.8935C16.3012 14.8409 16.175 14.783 16.2013 14.6252C16.2223 14.4779 16.3486 14.4305 16.4749 14.4147C16.6222 14.3989 16.7695 14.3989 16.9168 14.3937Z" fill="currentColor"/>
<path d="M20.91 9.05357C20.5207 9.01674 20.1261 8.97991 19.7315 8.93256C19.5894 8.91678 19.4211 8.90625 19.3632 8.74316C19.2895 8.54323 19.4579 8.43275 19.5842 8.33279C19.8104 8.14865 20.0577 7.99608 20.2997 7.82772C20.7942 7.48049 21.294 7.13325 21.7886 6.78602C22.1621 6.52296 22.3936 6.63871 22.4199 7.07538C22.4462 7.5331 22.4199 7.99608 22.4041 8.4538C22.3936 8.71685 22.241 8.88521 21.9833 8.92204C21.6308 8.97465 21.2783 9.00622 20.9152 9.05357H20.91Z" fill="currentColor"/>
<path d="M3.07482 14.3831C3.46941 14.4094 3.86926 14.3988 4.25858 14.4672C4.64265 14.5356 4.71104 14.8145 4.39011 15.0197C3.64829 15.4932 3.03273 16.1245 2.30143 16.6085C1.90684 16.8663 1.68061 16.7032 1.57539 16.2823C1.56487 16.2402 1.5596 16.1981 1.55434 16.1613C1.33863 14.8986 1.74901 14.4251 3.07482 14.3831Z" fill="currentColor"/>
<path d="M20.8467 14.2886C20.8467 14.2886 20.8888 14.2886 20.9098 14.2886C22.2672 14.2781 22.5671 14.6042 22.4882 15.9774C22.4724 16.1984 22.404 16.393 22.2093 16.5088C22.0147 16.6193 21.8411 16.5456 21.7095 16.3878C21.2097 15.7933 20.531 15.4671 19.8734 15.0988C19.6524 14.9725 19.3841 14.8673 19.4577 14.5569C19.5261 14.2728 19.8102 14.3096 20.0365 14.3044C20.3101 14.2938 20.5784 14.3044 20.852 14.3044C20.852 14.3044 20.852 14.2991 20.852 14.2938L20.8467 14.2886Z" fill="currentColor"/>
<path d="M1.61232 8.03818C1.69123 7.5752 1.54392 6.93335 2.01217 6.7229C2.49093 6.50719 2.84343 7.05961 3.21697 7.33845C3.56947 7.60151 3.92723 7.85931 4.27973 8.12236C4.46913 8.26441 4.67958 8.41172 4.57962 8.68004C4.47965 8.95362 4.23238 8.82209 4.03245 8.81683C3.50634 8.80105 2.98548 8.77474 2.45937 8.80105C1.7912 8.83788 1.59127 8.67478 1.61232 8.03292V8.03818Z" fill="currentColor"/>
</svg>
