<svg width="24" height="24" viewBox="0 0 24 24" fill="none" xmlns="http://www.w3.org/2000/svg">
<path d="M8.35646 18.8707C7.3005 18.678 6.23383 18.6745 5.17073 18.703C4.2539 18.728 3.35847 18.5889 2.46661 18.4319C2.00284 18.3498 1.67107 18.068 1.58545 17.565C1.45702 16.8158 1.51053 16.0631 1.56047 15.3104C1.67107 13.6301 1.44275 11.9534 1.5141 10.2767C1.56048 9.15296 1.49983 8.03278 1.5034 6.90903C1.5034 6.23479 1.88868 5.73891 2.53796 5.51059C3.519 5.16812 4.52502 5.14315 5.53104 5.29655C6.39793 5.43211 7.25412 5.45352 8.12101 5.33579C9.48021 5.15742 10.843 5.10747 12.2129 5.2359C12.9692 5.30725 13.7076 5.03612 14.4639 5.05753C16.3618 5.10747 18.274 4.7757 20.154 5.30368C20.4644 5.39287 20.7997 5.37503 21.1172 5.47849C21.8592 5.72107 22.1339 5.9922 22.1518 6.79131C22.1732 7.6582 22.2731 8.52152 22.298 9.38484C22.3302 10.4943 22.4479 11.6002 22.4621 12.7026C22.4764 13.8763 22.562 15.0607 22.4158 16.2343C22.3979 16.3735 22.4051 16.5197 22.4051 16.6624C22.3872 17.7006 22.1518 18.0288 21.1244 18.1786C19.7045 18.3855 18.2918 18.6138 16.8434 18.6531C15.6305 18.6852 14.4033 18.5603 13.1939 18.7779C12.8407 18.8421 12.4733 18.7886 12.1344 18.7101C11.478 18.5567 10.8394 18.6174 10.1866 18.6994C9.63718 18.7708 9.08779 18.81 8.53483 18.8635H8.3636L8.35646 18.8707ZM7.21845 16.0524C8.23874 16.188 9.08422 15.7848 9.82982 15.1855C10.4541 14.6825 10.9464 14.076 11.0178 13.1949C11.1212 11.9534 11.1676 10.744 10.4684 9.62386C9.88333 8.68919 9.14843 7.95073 8.03182 7.71528C7.10429 7.52263 6.16605 7.51193 5.24565 7.78306C4.55356 7.9864 3.92926 8.2932 3.50117 8.92464C2.69849 10.1126 2.40953 11.4112 2.63428 12.8167C2.83405 14.0903 3.57251 15 4.7141 15.5458C5.49894 15.9168 6.33372 16.1808 7.21845 16.0524ZM11.4352 13.1057C11.3959 13.3055 11.5172 13.6337 11.5636 13.969C11.6956 14.9536 12.3841 15.6457 13.3545 15.7385C14.4639 15.8455 15.7339 14.9144 15.8731 13.705C16.0479 12.1675 14.521 11.1008 13.358 11.5324C13.0726 11.6395 13.1083 11.4219 13.144 11.2863C13.2974 10.6977 13.4543 10.1055 13.7611 9.57035C14.0501 9.06377 14.414 8.60714 14.7672 8.14337C14.9919 7.85084 14.9099 7.46556 14.6209 7.40134C14.3284 7.33356 14.0394 7.31572 13.7433 7.48339C13.1083 7.84371 12.6945 8.38596 12.352 9.00669C11.6706 10.241 11.5672 11.6038 11.4316 13.1093L11.4352 13.1057ZM17.4535 12.8667C17.4856 13.1699 17.4963 13.441 17.5462 13.7086C17.6318 14.1688 18.092 14.0725 18.3739 14.2437C18.5915 14.3757 18.7377 14.2901 18.8519 14.1474C19.0374 13.9191 19.2193 13.6836 19.1979 13.3518C19.173 12.9844 19.1908 12.6134 19.1016 12.2495C19.0374 11.9926 19.1373 11.7964 19.4405 11.7857C19.6403 11.7786 19.8472 11.7536 20.0327 11.7964C20.3645 11.8749 20.5821 11.7786 20.8746 11.5895C21.3277 11.297 21.185 10.9866 21.0815 10.6549C20.9959 10.3802 20.8033 10.1982 20.4858 10.1483C20.1897 10.1019 19.89 10.052 19.5939 10.0734C19.2479 10.0983 19.1302 9.97347 19.0945 9.62029C19.0481 9.18863 19.1373 8.732 18.8983 8.32531C18.5915 7.8009 17.9101 7.77949 17.5926 8.28964C17.4249 8.56076 17.432 8.85686 17.4249 9.15652C17.4071 10.1269 17.3999 10.1269 16.4581 10.2089C16.4439 10.2089 16.4296 10.2089 16.4153 10.2089C16.1228 10.2303 15.7768 10.2731 15.7125 10.5871C15.6448 10.926 15.5698 11.322 15.8802 11.6252C16.1299 11.8714 16.451 11.8428 16.7614 11.8499C17.3714 11.8678 17.5391 12.0462 17.4963 12.6491C17.4891 12.7311 17.4606 12.8167 17.4499 12.8667H17.4535Z" fill="#CCD1E9"/>
<path d="M3.5689 11.768C3.62242 10.8655 3.91851 9.92367 4.6213 9.1317C4.90313 8.81419 5.24204 8.60015 5.65943 8.50739C6.21952 8.38253 6.79744 8.3754 7.35397 8.39324C8.35642 8.42891 9.09131 8.9997 9.54081 9.87016C10.1152 10.9761 10.3792 12.1605 9.87258 13.3591C9.39098 14.5007 7.72855 15.8956 5.9912 15.175C4.53568 14.5721 3.51539 13.2985 3.5689 11.7645V11.768ZM6.19098 11.0296C6.06255 11.7359 6.57983 12.1961 7.00079 12.7063C7.2077 12.9596 7.41818 13.2129 7.77136 13.2735C7.95686 13.3056 8.07816 13.3127 8.21372 13.0951C8.45631 12.7027 8.42777 12.4173 7.93546 11.9643C7.59299 11.6503 7.46456 11.3364 7.47526 10.8904C7.48596 10.3232 7.42888 9.75244 7.13992 9.24229C7.05787 9.09602 6.95085 8.89268 6.76891 8.94619C6.58697 8.9997 6.4407 9.17451 6.39432 9.38142C6.2766 9.90584 6.16957 10.4338 6.19455 11.0296H6.19098Z" fill="#CCD1E9"/>
<path d="M12.6909 13.2375C12.6624 12.9378 12.7551 12.7238 13.0584 12.5954C13.2689 12.5062 13.4758 12.4277 13.7041 12.392C14.414 12.2779 14.6388 12.4634 14.5603 13.1769C14.5032 13.7263 14.257 14.1829 13.7291 14.4255C13.3616 14.5931 13.1083 14.4933 12.9157 14.1401C12.8015 13.926 12.7016 13.5265 12.6909 13.2375Z" fill="#CCD1E9"/>
</svg>
