<svg width="24" height="24" viewBox="0 0 24 24" fill="none" xmlns="http://www.w3.org/2000/svg">
<path d="M11.3988 22.2233C9.40656 22.3297 7.99959 21.5021 6.72858 20.4675C3.82596 18.1029 1.83965 15.1825 1.92241 11.2867C2.01109 7.24317 4.16293 4.47652 7.73948 2.7917C11.8126 0.870413 16.6661 2.30694 19.5391 5.32188C20.9402 6.78797 21.5787 8.65015 21.892 10.6069C22.2408 12.7765 22.1403 14.9342 21.2831 16.9974C20.4495 19.0014 19.1076 20.6331 16.9794 21.1888C15.0817 21.6853 13.1664 22.312 11.3929 22.2292L11.3988 22.2233ZM13.2846 18.3098C14.6916 18.3453 15.6374 16.9856 15.5133 15.6377C15.4305 14.7214 15.1882 13.8169 14.733 13.0189C14.3191 12.2976 14.3073 11.6533 14.6325 10.8966C15.2118 9.55463 15.2473 8.24815 14.6147 6.82344C13.8639 5.11498 11.9959 5.26868 11.2392 6.39189C10.5475 7.42052 10.7071 8.53191 11.1446 9.60783C11.4106 10.2581 11.7476 10.8847 12.0905 11.4996C12.2737 11.8247 12.2796 12.0789 12.1141 12.4159C11.7062 13.2612 11.316 14.1184 10.9791 14.9933C10.2401 16.9028 11.8185 18.3393 13.2846 18.3157V18.3098ZM6.08421 12.3035C6.08421 12.9834 6.05466 13.6691 6.09013 14.349C6.14925 15.354 6.13151 16.3708 6.45665 17.3521C6.64582 17.9314 7.0892 18.2507 7.58578 18.2448C8.16512 18.2448 8.24196 17.6654 8.27152 17.1807C8.28334 16.9915 8.28335 16.8023 8.28335 16.6131C8.27152 14.7273 8.29518 12.8415 8.22424 10.9616C8.16512 9.51325 8.33656 8.06489 8.15921 6.61654C8.11783 6.27366 8.02323 5.91896 7.62715 5.90123C7.21334 5.88349 6.71676 5.77117 6.55124 6.40372C6.42709 6.88256 6.49212 7.41461 6.36798 7.83434C5.9246 9.31816 6.18471 10.8138 6.08421 12.2976V12.3035ZM17.8602 14.1125C17.9193 14.4731 17.9371 15.0643 18.4928 15.1175C19.0721 15.1766 19.1903 14.5973 19.2849 14.1302C19.3145 13.9943 19.3204 13.8406 19.2849 13.7105C19.0662 12.942 19.4209 12.6169 20.1421 12.54C20.5678 12.4927 20.9757 12.339 20.952 11.8365C20.9284 11.334 20.485 11.2454 20.0771 11.1922C19.9411 11.1744 19.7933 11.1744 19.6514 11.1922C19.214 11.2513 18.9302 11.1035 18.8061 10.6542C18.6938 10.2758 18.546 9.90341 18.3923 9.53689C18.3095 9.33589 18.1676 9.16446 17.9016 9.25904C17.677 9.3418 17.5173 9.51916 17.5883 9.7438C17.9253 10.8375 17.4109 11.1389 16.4119 11.1862C15.933 11.2099 15.8798 11.5823 16.2404 11.9252C16.536 12.209 16.9025 12.3745 17.3045 12.4513C17.8248 12.5518 18.008 12.8711 17.943 13.3676C17.9134 13.5805 17.8957 13.7874 17.8661 14.1007L17.8602 14.1125Z" fill="currentColor"/>
<path d="M14.1299 15.8211C14.1299 16.2822 14.0472 16.625 13.6452 16.7551C13.2786 16.8733 12.9003 16.9206 12.5692 16.6605C12.2441 16.3945 12.1377 16.0221 12.3032 15.6496C12.5574 15.0703 12.8471 14.5087 13.1604 13.9589C13.3141 13.687 13.5328 13.687 13.6747 14.0062C13.9466 14.6151 14.0531 15.2595 14.1299 15.8211Z" fill="currentColor"/>
<path d="M13.1782 10.0512C12.5811 9.31224 12.4274 8.50826 12.2855 7.71019C12.2323 7.40278 12.3624 7.08355 12.6639 6.93576C13.0836 6.72885 13.5033 6.91211 13.8758 7.08946C14.2187 7.25499 14.0413 7.57422 13.9822 7.84024C13.8167 8.59102 13.527 9.2886 13.1782 10.0512Z" fill="currentColor"/>
</svg>
