<svg width="auto" height="auto" viewBox="0 0 24 24" fill="none" xmlns="http://www.w3.org/2000/svg">
<path d="M1.9241 9.0853C1.87813 8.35815 2.45484 7.89845 2.99394 7.48054C4.34378 6.43578 5.91092 5.75459 7.42374 4.98564C7.80821 4.78923 8.14672 4.50923 8.51029 4.2752C8.77775 4.10386 9.04521 3.94505 9.37118 3.88655C10.1025 3.75282 10.675 3.88655 11.1389 4.56773C11.7031 5.39519 12.3049 6.19757 12.7395 7.09607C13.4917 8.65904 14.5114 10.0716 15.2804 11.6262C15.5729 12.2238 16.1496 12.6709 16.4129 13.3187C16.7221 14.0751 16.9854 14.8232 16.5592 15.6255C16.4547 15.822 16.346 16.01 16.1454 16.1145C15.0087 16.687 14.1311 17.6482 13.0111 18.2458C11.7365 18.927 10.4912 19.6751 9.06193 20.0177C8.70671 20.1055 8.3891 20.047 8.14672 19.7795C7.36106 18.9145 6.64225 18.0118 6.10315 16.9628C5.5557 15.8972 4.91631 14.8817 4.29781 13.8536C3.6208 12.7294 2.84767 11.6596 2.27096 10.4728C2.07455 10.0674 1.91992 9.6453 1.91992 9.08948L1.9241 9.0853ZM9.55506 13.1891C9.68879 13.3856 9.79744 13.5109 9.8643 13.6572C9.96878 13.8829 10.0774 14.1253 9.78491 14.3133C9.61357 14.422 9.51327 14.5808 9.62192 14.7814C9.7473 15.0112 9.95206 14.9402 10.1527 14.89C10.7544 14.7312 11.1347 14.2172 11.6697 13.9497C11.7825 13.8912 11.8034 13.7617 11.7407 13.6405C11.6738 13.5109 11.5652 13.4274 11.4189 13.4482C11.2726 13.4691 11.1306 13.5276 10.9885 13.5653C10.5664 13.6823 10.6333 13.2769 10.5037 13.093C10.3533 12.8841 10.4786 12.7712 10.7043 12.7127C11.0762 12.6208 11.4523 12.5414 11.7783 12.3241C12.2088 12.0357 12.4762 11.4841 12.3801 11.0411C12.2422 10.3975 11.7741 9.89604 11.2434 9.8041C10.207 9.6244 9.1873 9.37784 8.19686 9.01008C7.82493 8.87217 7.58672 8.98501 7.45299 9.35276C7.23568 9.94619 6.96404 10.5271 6.8136 11.1372C6.65479 11.7766 6.40823 12.4202 6.53778 13.0972C6.65479 13.7157 7.2315 14.3635 7.76642 14.4053C8.30552 14.447 9.06611 14.2715 9.32521 13.5736C9.37118 13.4524 9.45894 13.3479 9.55923 13.1933L9.55506 13.1891Z" fill="#CCD1E9"/>
<path d="M21.9835 8.39162C22.0796 10.2889 22.1089 12.1862 22.0044 14.0835C21.9584 14.8608 22.0838 15.6465 22.0796 16.4321C22.0796 17.1468 22.0295 17.8656 21.9584 18.576C21.8707 19.487 20.9137 20.1515 19.8606 20.093C18.6821 20.0261 17.5036 19.9426 16.3209 20.022C15.1173 20.1014 13.9263 19.8882 12.7269 19.8214C12.5514 19.813 12.3132 19.8088 12.2965 19.5748C12.2798 19.3742 12.4636 19.2781 12.635 19.1903C13.7341 18.6261 14.8457 18.0912 15.8236 17.3265C16.3084 16.9503 16.7931 16.5575 17.2069 16.1104C17.5621 15.7259 17.6958 15.2286 17.6666 14.6769C17.6039 13.4984 16.9603 12.5749 16.3919 11.622C15.5687 10.2346 14.9752 8.70923 13.9179 7.45969C13.6379 7.12954 13.3705 6.78268 13.1532 6.41074C12.9192 6.01791 13.0529 5.81732 13.5126 5.85911C15.2887 6.02209 17.0606 5.74209 18.8367 5.86747C19.1961 5.89254 19.5638 5.7797 19.9274 5.76717C20.734 5.74209 21.6241 6.30209 21.879 7.00835C22.0378 7.45133 21.9584 7.93192 21.9877 8.39162H21.9835ZM16.6176 8.92654C16.6176 8.95579 16.626 9.00594 16.6343 9.05609C16.7263 9.72474 17.8672 11.037 18.5065 11.2083C18.5651 11.225 18.657 11.2334 18.6904 11.2041C19.2964 10.6316 20.082 10.2221 20.3412 9.33191C20.4665 8.89729 20.3997 8.53371 20.0528 8.25371C19.7101 7.97789 19.3006 7.94028 18.9328 8.15759C18.5901 8.36237 18.3268 8.35819 17.9758 8.15759C17.3197 7.78566 16.6343 8.19103 16.6176 8.93072V8.92654Z" fill="#CCD1E9"/>
</svg>
