<svg width="24" height="24" viewBox="0 0 24 24" fill="none" xmlns="http://www.w3.org/2000/svg">
<path d="M11.9333 22C10.3125 21.8691 8.66603 21.8115 7.15844 21.0052C6.54615 20.6806 6.02133 20.2513 5.54281 19.7643C4.87392 19.0889 4.24619 18.3716 3.59273 17.6805C3.27886 17.3454 3.22226 16.8951 3.03703 16.5025C1.57061 13.4343 1.71983 10.3243 3.10392 7.3137C4.21017 4.91572 6.04705 3.18269 8.62486 2.47586C10.4309 1.97846 12.242 1.83186 14.151 2.22454C16.0959 2.6277 17.5211 3.7115 18.9464 4.96808C20.6289 6.4498 21.2772 8.44986 21.8587 10.497C22.0593 11.1986 22.0645 11.9369 21.7558 12.6437C21.2412 13.8217 19.6359 14.7799 18.1797 14.7171C17.5469 14.6909 16.9191 14.5548 16.2811 14.5181C15.5248 14.4762 14.7684 14.5024 14.1149 14.9893C13.5798 15.3872 13.2402 16.4867 13.4512 17.1255C13.6519 17.7171 13.8628 18.3088 14.048 18.9057C14.3002 19.7015 14.1818 20.4816 13.8577 21.2251C13.4769 22.0942 12.6794 21.9843 11.9282 21.9948L11.9333 22ZM15.7717 8.15666C15.7769 8.83207 16.4612 9.49701 17.1404 9.49178C17.6395 9.49178 18.0974 8.94726 18.082 8.3818C18.0666 7.76398 17.3822 7.14616 16.7236 7.14092C16.2091 7.14092 15.7717 7.6069 15.7769 8.15142L15.7717 8.15666ZM11.7481 6.99956C12.417 6.99956 13.0344 6.5231 13.0293 6.01523C13.019 5.41836 12.4273 4.70106 11.9385 4.69059C11.2799 4.67488 10.7139 5.27176 10.7293 5.97858C10.7396 6.56499 11.1769 6.99956 11.7481 6.99956ZM6.70051 13.2301C6.70051 12.6908 6.36092 12.3348 5.8258 12.3243C5.2238 12.3086 4.53947 12.9945 4.56005 13.5914C4.57034 13.9998 5.15176 14.471 5.66115 14.4919C6.16539 14.5076 6.70051 13.8636 6.70051 13.2301ZM6.89603 9.38182C7.45173 9.38182 7.93539 8.87919 7.95083 8.29279C7.96112 7.79539 7.39513 7.21422 6.89089 7.19851C6.45353 7.18804 5.78978 7.96817 5.81037 8.4708C5.83095 8.93155 6.36606 9.38182 6.89603 9.37659V9.38182Z" fill="currentColor"/>
</svg>
