<svg width="24" height="24" viewBox="0 0 24 24" fill="none" xmlns="http://www.w3.org/2000/svg">
<path d="M2.32092 16.9418C2.35938 16.777 2.36487 16.6122 2.43079 16.4803C3.39759 14.5632 4.52919 12.745 5.93545 11.119C6.60013 10.3554 6.91873 10.4159 7.36917 11.3058C8.54472 13.6239 9.69829 15.953 11.2364 18.0624C11.3682 18.2436 11.4726 18.4524 11.3462 18.6721C11.2254 18.8808 11.0276 18.8424 10.8189 18.8039C8.58866 18.3865 6.35842 17.9635 4.08973 17.7492C3.6338 17.7053 3.20533 17.557 2.72742 17.5954C2.23303 17.6394 2.45825 17.156 2.31543 16.9363L2.32092 16.9418Z" fill="#CCD1E9"/>
<path d="M13.4832 18.5238C13.1976 18.4798 12.9339 18.5897 12.824 18.326C12.7252 18.0953 12.9009 17.914 13.0108 17.7273C14.0325 16.0244 14.8895 14.2281 15.9661 12.5472C16.3672 11.921 16.8286 11.3387 17.2296 10.7125C17.3889 10.4598 17.5702 10.4653 17.7514 10.6905C17.8448 10.8113 17.9437 10.9322 18.0041 11.0695C18.5809 12.3879 19.5148 13.47 20.2893 14.6566C20.7727 15.3981 21.1023 16.2276 21.6846 16.9252C22.0032 17.3098 21.5417 17.4746 21.2122 17.524C20.2618 17.6668 19.306 17.7932 18.3502 17.9085C16.7022 18.1118 15.0433 18.2271 13.4832 18.5183V18.5238Z" fill="#CCD1E9"/>
<path d="M16.2409 10.0148C15.9772 10.5367 15.7575 11.0365 15.4773 11.5035C14.8071 12.6296 14.115 13.7447 13.3679 14.8213C12.89 15.508 12.6538 16.321 12.2858 17.0625C12.2144 17.2109 12.2693 17.4745 12.0441 17.48C11.8079 17.491 11.6705 17.2768 11.5662 17.079C11.2256 16.4418 10.8575 15.8211 10.5664 15.1619C9.87425 13.5744 9.00633 12.0857 8.1439 10.5861C7.77585 9.94889 7.81431 9.94889 8.56687 9.87748C9.72594 9.76761 10.8795 9.75113 12.0386 9.80057C13.1152 9.84452 14.1699 9.55887 15.2466 9.63578C15.5103 9.65226 15.774 9.64127 16.0211 9.75113C16.153 9.80607 16.2299 9.89396 16.2409 10.0093V10.0148Z" fill="#CCD1E9"/>
<path d="M14.8892 8.78978C12.8292 8.64696 10.7968 8.81725 8.76977 8.82274C8.68188 8.82274 8.59399 8.82274 8.5061 8.81175C7.67662 8.74584 7.59972 8.57006 8.05565 7.86693C9.03894 6.34532 9.90686 4.7523 11.0385 3.32957C11.3296 2.96153 11.4614 2.47263 11.6812 2.03867C11.8405 1.73106 11.9668 1.65964 12.2195 2.01121C12.6425 2.59348 13.06 3.17027 13.3895 3.81846C14.1861 5.37303 15.1419 6.82872 16.1526 8.24596C16.3559 8.5316 16.1856 8.63597 15.9604 8.72936C15.5978 8.87767 15.2188 8.72386 14.8837 8.78429L14.8892 8.78978Z" fill="#CCD1E9"/>
<path d="M10.4506 1.66504C10.0716 2.9065 9.363 3.77442 8.7148 4.6753C7.96223 5.72449 7.35798 6.87257 6.52851 7.87782C6.28681 8.16895 6.10004 8.30628 5.77594 8.10853C4.91351 7.58668 4.04558 7.07032 3.21611 6.51002C2.80961 6.23536 2.91947 5.87281 3.46879 5.5597C4.61138 4.9115 5.75946 4.2688 6.90754 3.63159C7.95674 3.04932 8.8741 2.23084 10.0332 1.84631C10.132 1.81335 10.2254 1.76392 10.4561 1.67053L10.4506 1.66504Z" fill="#CCD1E9"/>
<path d="M13.401 1.43994C14.4667 2.29688 15.7301 2.80774 16.8617 3.54383C18.0812 4.34583 19.3941 5.00501 20.685 5.69166C21.2288 5.9773 21.2782 6.09266 20.7839 6.47718C19.9214 7.15833 18.9876 7.72962 18.0318 8.26795C17.7736 8.41078 17.3341 8.65248 17.3616 7.95484C17.3671 7.76808 17.1638 7.58131 17.0595 7.38905C16.2135 5.85096 15.2028 4.42273 14.1536 3.01648C13.8075 2.55506 13.5054 2.05518 13.3955 1.44543L13.401 1.43994Z" fill="#CCD1E9"/>
<path d="M12.3079 20.5121C12.2585 20.1386 12.4617 19.8694 13.0769 19.7156C14.7084 19.3146 16.3948 19.4629 18.0263 19.1388C18.9711 18.9466 19.9215 18.8092 20.8718 18.6554C21.1135 18.617 21.4596 18.4741 21.5365 18.8037C21.5914 19.0454 21.2618 19.1718 21.0366 19.2432C18.7679 19.9958 16.664 21.1109 14.4942 22.0887C14.0053 22.3084 13.5054 22.4292 12.9945 22.5446C12.6704 22.616 12.4782 22.4567 12.4452 22.1436C12.3903 21.6657 12.3628 21.1878 12.3134 20.5121H12.3079Z" fill="#CCD1E9"/>
<path d="M22.08 8.58652C22.0086 9.51487 21.9317 10.3883 21.8823 11.2617C21.8219 12.3109 22.08 13.3546 21.9207 14.4038C21.8988 14.5576 22.0416 14.7938 21.8054 14.8597C21.6076 14.9147 21.5197 14.6894 21.4154 14.5631C20.6518 13.6732 20.1629 12.6185 19.5916 11.6133C19.2785 11.0584 18.9489 10.5146 18.5479 10.0312C18.2897 9.71811 18.2897 9.45994 18.6138 9.27317C19.5806 8.71836 20.476 8.05368 21.4978 7.59226C21.7614 7.47141 21.8768 7.60324 21.9317 7.81198C22.0031 8.08664 22.0416 8.36679 22.08 8.59201V8.58652Z" fill="#CCD1E9"/>
<path d="M1.91992 13.9094C2.21655 12.0033 1.73315 9.98731 2.02429 7.9823C2.10669 7.422 2.22754 7.36157 2.68897 7.63623C3.41957 8.07569 4.18861 8.44922 4.90822 8.89966C5.58389 9.32813 5.55093 9.52588 5.12246 10.2125C4.30397 11.5309 3.54591 12.8822 2.76038 14.2225C2.70545 14.3159 2.667 14.4203 2.60108 14.5137C2.47474 14.7005 2.33191 14.9147 2.09021 14.8543C1.84851 14.7883 1.94189 14.5247 1.92542 14.3379C1.91443 14.228 1.92542 14.1182 1.92542 13.9094H1.91992Z" fill="#CCD1E9"/>
<path d="M11.6921 21.9459C11.6866 22.616 11.3735 22.7808 10.6703 22.4622C9.17619 21.7866 7.68204 21.0889 6.18789 20.4133C5.08925 19.9189 3.98511 19.4465 2.88647 18.9521C2.73816 18.8862 2.48547 18.8642 2.55688 18.628C2.62829 18.4083 2.85351 18.5016 3.01831 18.5291C5.30348 18.9246 7.58865 19.3256 9.87932 19.7211C10.0112 19.7431 10.1375 19.7596 10.2693 19.7651C11.3515 19.831 11.5328 20.0123 11.6042 21.0834C11.6207 21.3691 11.6646 21.6492 11.6921 21.9294V21.9459Z" fill="#CCD1E9"/>
</svg>
