<svg width="auto" height="auto" viewBox="0 0 24 24" fill="none" xmlns="http://www.w3.org/2000/svg">
<path d="M22.1547 11.956C22.1547 12.5869 21.6296 13.0812 21.0344 13.0812H19.9141L19.9386 18.6967C19.9386 18.7913 19.9316 18.8859 19.9211 18.9806V19.5484C19.9211 20.3231 19.2945 20.9505 18.5208 20.9505H17.9606C17.9221 20.9505 17.8836 20.9505 17.8451 20.947C17.7961 20.9505 17.7471 20.9505 17.6981 20.9505L16.5603 20.947H15.72C14.9463 20.947 14.3197 20.3196 14.3197 19.5449V18.7037V16.4603C14.3197 15.8398 13.8191 15.3386 13.1994 15.3386H10.9588C10.3392 15.3386 9.83853 15.8398 9.83853 16.4603V18.7037V19.5449C9.83853 20.3196 9.21187 20.947 8.43817 20.947H7.59795H6.48116C6.42865 20.947 6.37613 20.9435 6.32362 20.94C6.28161 20.9435 6.2396 20.947 6.19759 20.947H5.63744C4.86374 20.947 4.23708 20.3196 4.23708 19.5449V15.619C4.23708 15.5875 4.23708 15.5524 4.24058 15.5209V13.0777H3.12029C2.49013 13.0777 2 12.5869 2 11.9525C2 11.637 2.10503 11.3566 2.35009 11.1112L11.3229 3.28042C11.568 3.03505 11.848 3 12.0931 3C12.3382 3 12.6182 3.07011 12.8283 3.24537L21.7696 11.1147C22.0497 11.3601 22.1897 11.6405 22.1547 11.956Z" fill="#CCD1E9"/>
</svg>
