<svg width="24" height="24" viewBox="0 0 24 24" fill="none" xmlns="http://www.w3.org/2000/svg">
<path d="M17.0098 21.8944C15.2961 22.0333 13.4228 21.8326 11.5598 22.0436C10.5923 22.1517 9.62475 21.9922 8.67267 21.9047C7.66912 21.812 6.71704 22.1414 5.72893 22.0488C5.58483 22.0333 5.44074 22.0385 5.30178 22.023C4.43204 21.9047 4.0718 21.2614 4.46292 20.4482C4.93124 19.4756 5.62086 18.8271 6.78909 18.6779C8.06025 18.5132 9.32626 18.5853 10.5923 18.5286C12.2134 18.4514 13.8242 18.6727 15.4453 18.5286C16.9429 18.4 18.3273 18.8632 19.3874 20.0365C19.6139 20.2887 19.7786 20.5718 19.8661 20.8857C19.9793 21.2974 19.794 21.7348 19.4183 21.7554C18.6618 21.7914 17.9156 21.9922 17.0047 21.8944H17.0098Z" fill="#CCD1E9"/>
<path d="M5.37928 8.25649C6.79454 8.06607 8.22009 8.35427 9.6302 8.13297C9.80518 8.10724 10.011 8.13812 10.1757 8.20502C10.644 8.39544 10.7984 8.25134 10.7933 7.75729C10.783 6.71772 10.8036 6.71772 9.76401 6.66111C9.13615 6.62508 8.87368 6.3832 8.82222 5.76049C8.79649 5.43112 8.79134 5.10176 8.80163 4.77753C8.83251 3.68135 8.93544 3.59901 10.0522 3.71223C10.9014 3.79972 10.9425 3.75855 10.8756 2.92484C10.8139 2.15802 10.9786 1.96761 11.7454 1.93673C11.9718 1.92644 12.1982 1.91614 12.4247 1.92129C13.3305 1.94188 13.4694 2.06024 13.5569 2.96086C13.6084 3.46521 13.8399 3.77913 14.3597 3.78943C15.0957 3.79972 15.2964 4.30921 15.353 4.88561C15.3942 5.30761 15.3067 5.73991 15.2655 6.16706C15.2501 6.33174 15.1523 6.41408 14.9876 6.45011C14.6685 6.51186 14.3494 6.58906 14.0252 6.66111C13.8039 6.70743 13.4643 6.57877 13.4437 6.94931C13.4231 7.30441 13.3356 7.72126 13.737 7.95285C14.0973 8.15871 14.5296 8.35427 14.9104 8.21532C15.9654 7.82934 17.0256 8.14841 18.0754 8.09695C18.5849 8.07122 19.0996 8.04549 19.609 8.17415C20.5971 8.42117 21.0294 9.16225 20.6795 10.1298C20.4119 10.8606 20.0825 11.5708 19.7892 12.2913C19.3003 13.4904 19.0224 14.7615 18.4665 15.9349C18.2452 16.3981 17.9879 16.8407 17.746 17.2935C17.638 17.4942 17.4424 17.5663 17.2468 17.6229C16.6499 17.7927 16.0529 17.9214 15.425 17.8854C13.665 17.7824 11.8998 17.6641 10.1397 17.5817C9.58903 17.556 9.0538 17.7516 8.49799 17.7619C7.91131 17.7722 7.3452 17.4685 6.74308 17.7052C6.58354 17.767 6.424 17.5457 6.3571 17.3656C5.68807 15.5283 4.55586 13.9124 3.84566 12.1008C3.57805 11.4164 3.37219 10.701 3.18692 9.98567C2.92446 8.96669 3.44939 8.30281 4.51469 8.27193C4.80289 8.26163 5.09109 8.27193 5.37928 8.27193V8.25649Z" fill="#CCD1E9"/>
</svg>
