<svg width="24" height="24" viewBox="0 0 24 24" fill="none" xmlns="http://www.w3.org/2000/svg">
<path d="M18.312 22.0799C17.5995 22.0128 16.7166 21.8786 15.8338 21.8682C14.6412 21.8579 13.4434 21.9095 12.256 21.9973C11.4506 22.0541 10.6607 21.9973 9.86043 21.987C8.2548 21.956 6.644 21.9405 5.03837 22.0386C3.39143 22.1419 2.46729 20.8512 3.06101 19.2765C3.60827 17.8206 4.35171 16.4731 5.55465 15.4405C5.82828 15.2082 5.82311 15.0069 5.71986 14.6868C5.41009 13.7471 4.97125 12.8591 4.56855 11.9556C4.23813 11.2122 4.4085 10.856 5.18809 10.6082C5.56497 10.4894 5.95735 10.4533 6.34972 10.4946C6.7266 10.5307 6.81437 10.3965 6.75758 10.0351C6.6853 9.61173 6.6853 9.17289 6.81437 8.74954C6.91247 8.43978 6.79888 8.30038 6.48912 8.2281C5.96251 8.10936 5.47204 7.89252 5.01255 7.62405C4.71827 7.44852 4.46529 7.23168 4.51176 6.84447C4.55306 6.48823 4.82153 6.354 5.12097 6.21977C5.68888 5.97195 6.23614 5.69316 6.84535 5.5486C7.13447 5.47632 7.27903 5.27497 7.37196 4.99618C7.67656 4.10301 8.23415 3.35957 8.81754 2.63678C9.45257 1.85203 10.1599 1.71263 11.1305 2.21343C11.6984 2.50771 12.1527 2.6471 12.7619 2.21343C13.4486 1.72812 14.5121 2.03789 15.0284 2.72454C15.364 3.17371 15.6479 3.68483 15.7718 4.20627C16.0197 5.26465 16.7631 5.57442 17.6769 5.71381C18.0538 5.7706 18.3894 5.92549 18.7095 6.11135C19.3032 6.44693 19.36 6.98903 18.8747 7.47949C18.5133 7.84605 18.0486 8.02159 17.5685 8.13517C17.3155 8.19712 17.1452 8.29522 17.1503 8.57917C17.1606 9.08513 17.0109 9.55494 16.8354 10.0196C16.6702 10.4584 16.8509 10.5565 17.2587 10.5565C17.646 10.5565 18.0435 10.5978 18.4255 10.6753C19.076 10.8095 19.3497 11.3155 19.0967 11.9247C18.7766 12.7043 18.4462 13.4787 18.09 14.2428C17.8628 14.7281 17.8886 15.0791 18.3068 15.4973C19.4581 16.6332 20.2635 17.9806 20.5526 19.6018C20.8521 21.259 20.1499 22.1006 18.312 22.0748V22.0799ZM13.7119 10.6649C14.5379 10.6856 15.2401 10.0351 15.4776 9.05931C15.5757 8.66178 15.5189 8.52238 15.0439 8.5895C12.9426 8.8941 10.8414 9.03866 8.72978 8.64629C8.54908 8.61015 8.30642 8.57917 8.27029 8.81666C8.20833 9.22452 8.20833 9.65304 8.5181 9.97829C9.25638 10.7372 10.6503 10.6598 11.2905 9.8389C11.6726 9.34843 11.8636 9.3381 12.2095 9.84922C12.5761 10.3913 13.0769 10.6443 13.7119 10.6649ZM13.8616 19.6741C14.5792 17.7328 14.8632 15.7555 15.3433 13.8246C15.4001 13.5923 15.3124 13.4116 15.0594 13.551C14.4657 13.8711 13.7687 14.0259 13.2834 14.5267C12.9788 14.8417 12.5916 15.1927 12.6742 15.6884C12.9013 17.041 13.273 18.3575 13.8616 19.6792V19.6741ZM9.91206 19.7257C10.2167 18.817 10.48 18.0013 10.7691 17.1907C11.2905 15.7297 10.8672 14.568 9.52485 13.8607C9.27703 13.7317 8.9621 13.5355 8.71429 13.6904C8.47163 13.8452 8.59554 14.1963 8.64201 14.4441C8.88466 15.6109 9.16345 16.7726 9.41643 17.9393C9.54034 18.5124 9.65392 19.0907 9.9069 19.7257H9.91206Z" fill="#CCD1E9"/>
</svg>
