<svg width="auto" height="auto" viewBox="0 0 24 24" fill="none" xmlns="http://www.w3.org/2000/svg">
<path d="M5.92569 5.06456C7.57053 5.12495 9.06617 5.01482 10.5618 5.00061C11.4038 4.99351 12.2564 5.05035 13.1055 5.07166C13.99 5.09653 14.8746 5.14271 15.7628 5.12495C16.7362 5.10363 17.7131 5.16048 18.683 5.11074C19.255 5.08232 19.8092 5.11429 20.3563 5.23508C21.2799 5.43758 21.724 6.15164 21.8768 6.98295C22.2853 9.17489 22.2782 11.4024 22.3457 13.6227C22.3812 14.7809 22.4381 15.939 22.4985 17.0936C22.5411 17.8858 21.6849 18.6887 20.8394 18.5928C20.5765 18.5644 20.3421 18.5821 20.0898 18.6532C18.8784 18.9942 17.6492 19.1079 16.388 18.9836C15.6882 18.9161 14.9706 18.9729 14.2636 19.0013C12.5513 19.0688 10.8389 19.0475 9.13367 18.8841C8.14605 18.7882 7.15488 18.8947 6.16371 18.8059C5.01978 18.7029 3.8794 18.5928 2.74258 18.4329C2.4264 18.3867 2.21324 18.1878 2.06404 17.9071C1.69812 17.2179 1.68391 16.4612 1.64483 15.7152C1.58799 14.557 1.55602 13.3989 1.50983 12.2408C1.48141 11.5054 1.52049 10.77 1.55246 10.0346C1.58799 9.23173 1.63773 8.4253 1.57733 7.62597C1.50983 6.73072 1.97522 6.16941 2.61113 5.71113C3.20086 5.28126 3.86164 4.9935 4.63255 5.06811C5.11215 5.11429 5.5953 5.00772 5.92924 5.06456H5.92569ZM13.4181 7.30979C12.8781 7.20321 12.3594 7.46965 11.8798 7.8107C11.1906 8.2974 11.1196 8.912 11.6773 9.46975C11.8869 9.67936 12.1534 9.77528 12.4056 9.53725C12.6116 9.34541 12.839 9.18199 13.0131 8.95108C13.2511 8.6349 13.6206 8.5674 13.9723 8.64555C14.2743 8.71305 14.5123 8.95818 14.5336 9.27436C14.562 9.64383 14.3346 9.89606 14.0043 10.0701C13.7804 10.1874 13.5744 10.3437 13.379 10.5071C12.9385 10.873 12.9314 11.3739 13.3755 11.7327C13.617 11.9281 13.8977 12.0702 14.157 12.2443C14.7325 12.6316 14.7787 13.0827 14.3027 13.5623C14.0398 13.8288 13.7556 14.0597 13.4181 14.216C13.141 14.3403 12.8816 14.454 12.5512 14.2622C12.2386 14.0775 11.5423 14.5286 11.5956 14.8626C11.6596 15.264 11.8372 15.6051 12.2599 15.8004C13.2014 16.2374 14.0575 15.9781 14.8924 15.5233C15.4182 15.2356 15.8729 14.8732 16.1216 14.2835C16.5088 13.3669 16.452 12.4468 15.8658 11.7079C15.4466 11.1785 15.642 10.9476 15.9404 10.5355C16.619 9.59054 16.3738 7.86043 14.9635 7.49097C14.4874 7.36663 14.0007 7.31334 13.4216 7.30979H13.4181ZM11.5565 12.0525C11.6098 10.9157 11.1728 9.9458 10.5014 9.08608C9.6559 8.00254 8.4942 7.54781 7.13357 7.64373C6.32713 7.70057 5.64504 8.06649 4.97005 8.51411C3.63428 9.40226 3.15823 10.6776 3.23283 12.1804C3.28257 13.1609 3.65914 14.0881 4.24177 14.8839C4.90965 15.7969 5.81556 16.376 6.98081 16.4719C8.24908 16.5785 9.25801 15.939 10.203 15.2498C11.2581 14.4789 11.5139 13.2888 11.5636 12.0525H11.5565ZM19.0205 12.2088C19.5179 12.2337 20.0223 12.1662 20.5019 11.9637C20.7932 11.8393 20.946 11.6439 20.8998 11.3064C20.8465 10.9405 20.4842 10.6776 19.9051 10.6314C19.0987 10.5711 18.2887 10.5462 17.4893 10.4538C16.9742 10.3934 16.6722 10.7061 16.3383 10.9725C16.1962 11.0862 16.182 11.2922 16.253 11.4876C16.388 11.8748 16.722 12.0916 17.0595 12.0809C17.7167 12.0631 18.3526 12.2479 19.024 12.2123L19.0205 12.2088ZM19.6351 13.8394C19.6351 13.3385 19.2834 12.9655 18.8038 12.9513C18.3739 12.9371 17.9725 13.3456 17.976 13.7861C17.976 14.2551 18.3775 14.6388 18.8855 14.6636C19.2301 14.6814 19.6386 14.2302 19.6351 13.8359V13.8394ZM18.5835 8.32227C18.0329 8.33293 17.7558 8.57806 17.7629 9.05766C17.7629 9.27792 18.3206 9.71488 18.5871 9.70778C18.8891 9.69712 19.2798 9.30989 19.2869 9.01147C19.294 8.65976 18.9459 8.31872 18.5835 8.32227Z" fill="currentColor"/>
<path d="M7.51704 8.77706C8.92386 8.8268 9.76227 9.57284 10.2632 10.8198C10.8778 12.351 10.5296 13.7009 9.55266 14.9337C9.19741 15.3778 8.62189 15.4381 8.10677 15.5731C6.78876 15.9177 5.10484 14.8342 4.60392 13.2604C4.20959 12.0206 4.1563 10.8162 5.12615 9.80376C5.76917 9.13232 6.55429 8.69891 7.51704 8.78062V8.77706ZM8.09611 11.3207C8.03216 10.7523 8.00019 10.2443 7.90782 9.74691C7.86875 9.53021 7.79769 9.27442 7.47796 9.246C7.01968 9.20337 6.69639 9.48403 6.68574 9.94586C6.67153 10.4859 6.78165 11.0152 6.81007 11.5516C6.83494 12.0525 6.88468 12.5321 7.17954 12.9584C7.49217 13.4096 7.75861 13.8999 8.30571 14.1272C8.60057 14.2516 8.88123 14.2587 9.06951 13.9994C9.2578 13.7436 9.26135 13.4345 9.06951 13.1645C8.94873 12.994 8.81728 12.8092 8.65031 12.6885C8.14585 12.3296 7.86874 11.8998 8.09255 11.3243L8.09611 11.3207Z" fill="currentColor"/>
</svg>
