<svg width="12" height="14" viewBox="0 0 12 14" fill="none" xmlns="http://www.w3.org/2000/svg">
<g clip-path="url(#clip0_1018_429)">
<path d="M2.14314 2.1875V5.25C2.14314 5.31836 2.17528 5.38398 2.22885 5.425L3.60028 6.475C3.78242 6.61445 3.87885 6.84141 3.85474 7.07383L3.57617 9.625H2.28242L2.53421 7.30078L1.45742 6.475C1.07974 6.18516 0.857422 5.73125 0.857422 5.25V1.96875C0.857422 1.36445 1.33689 0.875 1.92885 0.875H10.0717C10.6637 0.875 11.1431 1.36445 11.1431 1.96875V5.25C11.1431 5.73125 10.9208 6.18516 10.5431 6.475L9.46635 7.30078L9.71814 9.625H8.42439L8.14581 7.07383C8.12171 6.84414 8.21814 6.61445 8.40028 6.475L9.77171 5.425C9.82528 5.38398 9.85742 5.31836 9.85742 5.25V2.1875H8.14314V2.84375C8.14314 3.20742 7.85653 3.5 7.50028 3.5C7.14403 3.5 6.85742 3.20742 6.85742 2.84375V2.1875H5.14314V2.84375C5.14314 3.20742 4.85653 3.5 4.50028 3.5C4.14403 3.5 3.85742 3.20742 3.85742 2.84375V2.1875H2.14314ZM2.26903 12.6875H9.73153L9.28689 11.8125H2.71099L2.26903 12.6875ZM9.55206 10.5C9.87349 10.5 10.1655 10.6832 10.3128 10.973L11.0226 12.373C11.103 12.5316 11.1458 12.7066 11.1458 12.8844C11.1458 13.4996 10.6583 14 10.053 14H1.95028C1.34492 14 0.857422 13.5023 0.857422 12.8844C0.857422 12.7066 0.900279 12.5316 0.980636 12.373L1.69046 10.973C1.8351 10.6832 2.12974 10.5 2.45117 10.5H9.54939H9.55206ZM5.57171 7.875C5.33599 7.875 5.14314 7.67812 5.14314 7.4375V6.125C5.14314 5.64102 5.52617 5.25 6.00028 5.25C6.47439 5.25 6.85742 5.64102 6.85742 6.125V7.4375C6.85742 7.67812 6.66456 7.875 6.42885 7.875H5.57171Z" fill="#FF7979"/>
</g>
<defs>
<clipPath id="clip0_1018_429">
<rect width="12" height="14" fill="white"/>
</clipPath>
</defs>
</svg>
