<?xml version="1.0" encoding="UTF-8" standalone="no"?>
<svg
   id="Layer_1"
   viewBox="0 0 428.88 373.2"
   version="1.1"
   sodipodi:docname="RegnCon2024Logo1_2_2.svg"
   inkscape:version="1.3.2 (091e20ef0f, 2023-11-25)"
   xmlns:inkscape="http://www.inkscape.org/namespaces/inkscape"
   xmlns:sodipodi="http://sodipodi.sourceforge.net/DTD/sodipodi-0.dtd"
   xmlns="http://www.w3.org/2000/svg"
   xmlns:svg="http://www.w3.org/2000/svg">
  <sodipodi:namedview
     id="namedview39"
     pagecolor="#ffffff"
     bordercolor="#000000"
     borderopacity="0.25"
     inkscape:showpageshadow="2"
     inkscape:pageopacity="0.0"
     inkscape:pagecheckerboard="0"
     inkscape:deskcolor="#d1d1d1"
     inkscape:zoom="2.5643086"
     inkscape:cx="214.48277"
     inkscape:cy="186.60001"
     inkscape:window-width="1920"
     inkscape:window-height="1200"
     inkscape:window-x="0"
     inkscape:window-y="0"
     inkscape:window-maximized="1"
     inkscape:current-layer="Layer_1" />
  <defs
     id="defs1">
    <style
       id="style1">
      .cls-1 {
        fill: #fff;
      }
    </style>
  </defs>
  <path
     class="cls-1"
     d="M428.88,373.2c-142.96,0-285.92,0-428.88,0C0,248.8,0,124.4,0,0c142.96,0,285.92,0,428.88,0,0,124.4,0,248.8,0,373.2ZM395.62,131.71c.11-.41.2-.75.28-1.09,1.66-7.19,3.4-14.35,4.94-21.57.66-3.11.84-6.32,1.36-9.47.81-4.99,2-9.91,2.21-15.02.16-3.93-1.16-4.1-4.14-3.34-2.35.6-4.6,1.56-6.93,2.22-4.26,1.21-8.55,2.3-12.82,3.47-1.36.37-2.68.85-3.96,1.27.56-3.9,1.2-7.71,1.61-11.55.19-1.8.01-3.66-.15-5.48-.04-.4-.72-1.07-1.1-1.06-2.7.02-5.29.58-7.66,2-2.93,1.75-5.89,3.46-8.91,5.22.06-.24.09-.43.15-.61,2.87-10.09,5.84-20.14,7.12-30.61.44-3.61,1.07-7.17.63-10.82-.18-1.5-.67-2.14-2.16-2.01-1.74.15-3.56.23-5.17.83-4.22,1.56-8.36,3.33-12.49,5.13-7.16,3.13-13.78,7.24-20.45,11.25-.35.21-.72.39-1.04.57-.42-3.68-.76-7.21-1.24-10.73-.47-3.4-1.05-6.8-2.75-9.85-.24-.43-.91-.9-1.35-.87-.76.04-1.58.33-2.23.74-3.43,2.19-6.81,4.47-10.23,6.68-.28.18-.84.25-1.11.1-2.23-1.25-4.43-2.55-6.6-3.89-.35-.22-.72-.7-.76-1.09-.25-2.5-.51-5-.6-7.51-.22-6.26-.21-12.54-2.4-18.55-.54-1.47-1.41-2.06-2.83-1.42-2.39,1.08-4.87,2.07-6.53,4.28-.24.32-.53.6-.85.84-3.51,2.64-6.38,5.91-9.17,9.27-.66.8-1.21,2.04-2.03,2.26-.87.23-2.02-.47-3.03-.82-11.54-4.01-23.35-6.88-35.49-8.3-3.24-.38-6.25-1.04-9.05-2.92-2.69-1.81-5.83-2.59-9.14-2.06-1.01.16-2,.48-3.08.75-.5-2.43-1.54-4.57-3.51-6.1-.72-.56-1.66-1.08-2.54-1.16-6.56-.56-13.1-.2-19.53,1.26-5.97,1.36-11.68,3.35-16.23,7.73-.18.17-.58.27-.8.19-1.79-.64-3.4-.12-4.93.74-3.27,1.81-5.97,4.24-8.2,7.25-.44.59-1.16,1.11-1.85,1.34-13.41,4.41-26.14,10.27-38.14,17.71-19.79,12.29-36.53,27.87-50.19,46.74-8.35,11.54-15.21,23.9-20.49,37.12-1.49,3.74-2.58,7.66-4.28,11.29-1.74,3.72-3.05,7.54-4.06,11.49-.73,2.86-1.23,5.77-1.96,8.63-1.21,4.75-2.51,9.47-3.8,14.19-.1.35-.28.77-.56.97-1.78,1.26-3.66,2.39-5.39,3.71-2.41,1.84-4.76,3.76-7.04,5.76-1.25,1.1-1.2,1.58-.14,2.81.46.54,1.04.98,1.61,1.41,1.43,1.07,2.88,2.12,4.34,3.19-1.94.69-3.86,1.17-5.57,2.04-3.19,1.63-6.19,3.65-9.42,5.21-4.21,2.04-7.52,5.23-11.13,8.05-.62.49-1.13,1.13-1.6,1.77-1.02,1.39-.92,2.23.32,3.45.51.51,1.02,1.01,1.57,1.48,3.44,2.93,6.81,5.93,10.35,8.74,2.93,2.33,6.02,4.47,9.11,6.59.81.56,1.01.95.54,1.78-1.49,2.59-2.98,5.19-4.42,7.81-.88,1.6-1.82,3.19-2.49,4.89-.58,1.5-.17,2.32,1.1,2.67,2.49.68,5,1.36,7.54,1.83,2.73.5,5.51.76,8.35,1.14-.11.42-.2.75-.28,1.1-1.66,7.19-3.4,14.35-4.94,21.57-.66,3.11-.82,6.32-1.36,9.47-.9,5.27-2.19,10.47-2.23,15.86-.02,2.37.66,3.09,2.97,2.76.43-.06.88-.11,1.29-.24,2.39-.75,4.76-1.59,7.17-2.27,2.99-.85,6.03-1.53,9.02-2.37,2.51-.7,4.99-1.53,7.41-2.27-.48,3.41-1.06,6.79-1.4,10.19-.22,2.24-.14,4.52-.06,6.78.01.39.71,1.08,1.09,1.08,2.66-.04,5.22-.54,7.55-1.93,2.97-1.77,5.98-3.5,8.99-5.26,0,.11,0,.23-.03.33-2.9,10.2-5.91,20.37-7.21,30.96-.44,3.57-1.05,7.09-.61,10.71.18,1.52.65,2.15,2.14,2.03,1.7-.14,3.49-.21,5.06-.79,4.25-1.58,8.44-3.34,12.6-5.16,7.16-3.12,13.78-7.24,20.45-11.25.35-.21.72-.4,1.14-.63.23,2.52.38,4.87.66,7.2.47,4,1.01,8,2.43,11.81,1.07,2.87,2.2,3.23,4.8,1.52.07-.04.13-.09.2-.14,3.14-2.06,6.27-4.13,9.42-6.16.26-.17.77-.2,1.03-.05,2.36,1.34,4.69,2.73,7.01,4.14.32.2.65.63.69.99.23,2.58.45,5.17.56,7.76.25,6.06.24,12.14,2.39,17.95.55,1.47,1.41,2.06,2.83,1.42,2.39-1.08,4.87-2.06,6.53-4.28.21-.29.47-.55.76-.76,3.99-3.02,7.21-6.78,10.3-10.66.54-.68.97-.9,1.87-.57,13.28,4.78,26.93,7.97,40.98,9.44,1.62.17,3.04.62,4.44,1.51,1.5.95,3.17,1.69,4.86,2.28,2.84,1,5.72.87,8.5-.33,1.56,4.03,1.98,4.89,3.63,6.16.73.56,1.66,1.09,2.54,1.17,6.61.57,13.18.2,19.65-1.28,5.93-1.36,11.59-3.35,16.12-7.7.18-.17.58-.28.8-.2,1.79.65,3.39.13,4.94-.72,3.19-1.76,5.86-4.13,8.06-7.05.44-.59,1.16-1.1,1.86-1.33,7.48-2.47,14.79-5.36,21.87-8.79,23.13-11.22,42.94-26.71,59.33-46.51,12.09-14.6,21.59-30.75,28.4-48.46,1.12-2.9,1.82-6.01,3.27-8.73,2.21-4.15,3.53-8.55,4.67-13.04.64-2.51,1.04-5.08,1.68-7.59,1.22-4.78,2.53-9.55,3.83-14.31.1-.35.29-.76.57-.96,1.78-1.26,3.66-2.39,5.39-3.72,2.41-1.84,4.76-3.77,7.04-5.77,1.24-1.09,1.19-1.57.12-2.82-.46-.54-1.05-.97-1.61-1.4-1.43-1.07-2.87-2.12-4.1-3.02,3.15-1.39,6.35-2.69,9.45-4.21,2-.98,3.78-2.39,5.76-3.42,4.33-2.27,7.92-5.5,11.54-8.69.27-.24.49-.53.7-.82,1.05-1.46.99-2.3-.28-3.55-.48-.48-.96-.97-1.47-1.41-3.44-2.93-6.82-5.93-10.35-8.73-3-2.37-6.15-4.56-9.31-6.72-.75-.52-.86-.9-.46-1.61,1.5-2.64,3.01-5.27,4.47-7.92.88-1.6,1.82-3.19,2.48-4.89.58-1.49.15-2.28-1.12-2.66-1.98-.59-3.97-1.22-6-1.58-3.22-.57-6.48-.93-9.87-1.4Z"
     id="path1"
     style="fill:none" />
  <path
     d="M395.62,131.71c3.39.47,6.65.83,9.87,1.4,2.03.36,4.02.99,6,1.58,1.27.38,1.7,1.17,1.12,2.66-.66,1.7-1.6,3.29-2.48,4.89-1.46,2.66-2.97,5.29-4.47,7.92-.4.71-.3,1.09.46,1.61,3.16,2.17,6.31,4.35,9.31,6.72,3.54,2.8,6.91,5.8,10.35,8.73.52.44.99.93,1.47,1.41,1.27,1.26,1.33,2.1.28,3.55-.21.29-.43.59-.7.82-3.62,3.19-7.2,6.43-11.54,8.69-1.98,1.03-3.76,2.44-5.76,3.42-3.1,1.52-6.3,2.82-9.45,4.21,1.23.9,2.68,1.95,4.1,3.02.57.43,1.15.87,1.61,1.4,1.07,1.24,1.12,1.73-.12,2.82-2.28,2-4.63,3.92-7.04,5.77-1.73,1.33-3.61,2.46-5.39,3.72-.28.2-.47.61-.57.96-1.3,4.76-2.61,9.53-3.83,14.31-.64,2.51-1.04,5.08-1.68,7.59-1.15,4.49-2.47,8.89-4.67,13.04-1.45,2.72-2.16,5.83-3.27,8.73-6.8,17.71-16.31,33.86-28.4,48.46-16.39,19.79-36.2,35.29-59.33,46.51-7.08,3.43-14.39,6.33-21.87,8.79-.7.23-1.41.75-1.86,1.33-2.2,2.92-4.87,5.28-8.06,7.05-1.54.85-3.15,1.37-4.94.72-.22-.08-.62.03-.8.2-4.52,4.35-10.19,6.34-16.12,7.7-6.47,1.48-13.04,1.84-19.65,1.28-.88-.08-1.81-.61-2.54-1.17-1.65-1.27-2.08-2.13-3.63-6.16-2.78,1.19-5.66,1.33-8.5.33-1.68-.59-3.36-1.33-4.86-2.28-1.4-.89-2.82-1.34-4.44-1.51-14.04-1.46-27.7-4.66-40.98-9.44-.91-.33-1.33-.11-1.87.57-3.09,3.88-6.31,7.64-10.3,10.66-.28.21-.54.48-.76.76-1.66,2.22-4.14,3.2-6.53,4.28-1.42.64-2.28.05-2.83-1.42-2.16-5.81-2.14-11.89-2.39-17.95-.11-2.59-.32-5.17-.56-7.76-.03-.35-.37-.79-.69-.99-2.31-1.42-4.65-2.8-7.01-4.14-.26-.15-.77-.11-1.03.05-3.16,2.03-6.29,4.1-9.42,6.16-.07.04-.13.09-.2.14-2.61,1.71-3.74,1.35-4.8-1.52-1.41-3.81-1.96-7.81-2.43-11.81-.27-2.33-.43-4.68-.66-7.2-.42.23-.79.42-1.14.63-6.68,4-13.3,8.12-20.45,11.25-4.16,1.82-8.35,3.58-12.6,5.16-1.57.58-3.36.65-5.06.79-1.49.12-1.96-.5-2.14-2.03-.44-3.61.17-7.13.61-10.71,1.3-10.59,4.31-20.75,7.21-30.96.03-.11.02-.22.03-.33-3.01,1.76-6.01,3.49-8.99,5.26-2.33,1.39-4.9,1.88-7.55,1.93-.37,0-1.07-.69-1.09-1.08-.08-2.26-.16-4.54.06-6.78.33-3.4.92-6.78,1.4-10.19-2.42.75-4.9,1.57-7.41,2.27-2.99.84-6.03,1.52-9.02,2.37-2.41.68-4.78,1.52-7.17,2.27-.42.13-.86.18-1.29.24-2.31.33-2.98-.39-2.97-2.76.04-5.39,1.33-10.59,2.23-15.86.54-3.14.7-6.36,1.36-9.47,1.54-7.21,3.28-14.38,4.94-21.57.08-.34.17-.68.28-1.1-2.84-.38-5.62-.63-8.35-1.14-2.54-.47-5.04-1.15-7.54-1.83-1.27-.35-1.68-1.17-1.1-2.67.66-1.69,1.6-3.29,2.49-4.89,1.45-2.62,2.93-5.22,4.42-7.81.47-.82.28-1.22-.54-1.78-3.09-2.11-6.18-4.26-9.11-6.59-3.53-2.81-6.91-5.81-10.35-8.74-.55-.47-1.06-.97-1.57-1.48-1.24-1.22-1.33-2.06-.32-3.45.47-.64.98-1.29,1.6-1.77,3.6-2.83,6.92-6.02,11.13-8.05,3.22-1.56,6.22-3.58,9.42-5.21,1.71-.87,3.63-1.35,5.57-2.04-1.46-1.07-2.92-2.11-4.34-3.19-.57-.43-1.15-.87-1.61-1.41-1.06-1.24-1.1-1.72.14-2.81,2.28-2,4.63-3.92,7.04-5.76,1.73-1.33,3.61-2.45,5.39-3.71.28-.2.46-.62.56-.97,1.28-4.73,2.59-9.45,3.8-14.19.73-2.86,1.23-5.77,1.96-8.63,1.01-3.95,2.31-7.77,4.06-11.49,1.7-3.64,2.79-7.55,4.28-11.29,5.28-13.23,12.14-25.59,20.49-37.12,13.66-18.88,30.4-34.46,50.19-46.74,11.99-7.45,24.73-13.31,38.14-17.71.7-.23,1.42-.75,1.85-1.34,2.23-3,4.93-5.44,8.2-7.25,1.54-.85,3.15-1.38,4.93-.74.22.08.63-.02.8-.19,4.55-4.38,10.26-6.38,16.23-7.73,6.43-1.46,12.96-1.82,19.53-1.26.88.08,1.82.6,2.54,1.16,1.96,1.53,3.01,3.67,3.51,6.1,1.08-.27,2.07-.59,3.08-.75,3.31-.53,6.46.25,9.14,2.06,2.8,1.88,5.81,2.55,9.05,2.92,12.14,1.41,23.95,4.29,35.49,8.3,1.01.35,2.16,1.05,3.03.82.82-.22,1.36-1.47,2.03-2.26,2.79-3.36,5.66-6.63,9.17-9.27.32-.24.61-.53.85-.84,1.66-2.22,4.15-3.2,6.53-4.28,1.42-.64,2.29-.06,2.83,1.42,2.19,6.01,2.17,12.29,2.4,18.55.09,2.51.34,5.01.6,7.51.04.39.41.87.76,1.09,2.17,1.34,4.38,2.64,6.6,3.89.27.15.83.09,1.11-.1,3.42-2.21,6.8-4.49,10.23-6.68.65-.41,1.47-.7,2.23-.74.44-.03,1.11.44,1.35.87,1.7,3.05,2.28,6.45,2.75,9.85.48,3.51.82,7.05,1.24,10.73.32-.18.69-.36,1.04-.57,6.68-4,13.3-8.12,20.45-11.25,4.12-1.8,8.27-3.56,12.49-5.13,1.61-.6,3.43-.68,5.17-.83,1.5-.13,1.98.5,2.16,2.01.44,3.65-.19,7.21-.63,10.82-1.28,10.47-4.25,20.52-7.12,30.61-.05.18-.09.37-.15.61,3.02-1.77,5.98-3.47,8.91-5.22,2.37-1.41,4.95-1.97,7.66-2,.38,0,1.07.66,1.1,1.06.16,1.82.34,3.67.15,5.48-.41,3.84-1.05,7.65-1.61,11.55,1.28-.41,2.6-.89,3.96-1.27,4.27-1.17,8.56-2.26,12.82-3.47,2.33-.66,4.59-1.63,6.93-2.22,2.98-.76,4.3-.59,4.14,3.34-.21,5.11-1.4,10.02-2.21,15.02-.51,3.15-.69,6.36-1.36,9.47-1.54,7.21-3.28,14.38-4.94,21.57-.08.34-.18.68-.28,1.09ZM218.48,283.98c-1.93-1.41-4.12-1.67-6.37-1.33-1.29.19-2.53.76-3.81,1.08-1.89.46-3.83.76-5.7,1.29-.85.24-1.79.69-2.36,1.34-1.69,1.93-1.76,4.46-2.08,6.83-.38,2.79-.71,5.5-2,8.14-1.3,2.64-3.44,4.36-5.34,6.38-.1.11-.26.18-.39.24-1.87.9-3.75,1.76-5.59,2.69-1.23.62-2.19,1.8-3.74,1.78-.71,0-1.41.17-2.12.19-1.55.06-3.12.25-4.64.06-2.52-.32-5.01-.85-7.5-1.37-3.51-.74-7.1-1.28-10.5-2.38-4.82-1.56-9.55-3.46-14.24-5.39-3.79-1.56-7.65-2.78-11.67-3.5-2.68-.48-5.14-1.44-7.2-3.29-1.96-1.76-3.92-3.52-5.88-5.29-1.09-.98-2.1-2.07-3.28-2.93-3.49-2.53-7.11-4.87-10.55-7.47-3.45-2.6-6.83-5.32-10.09-8.17-3.56-3.11-7.01-6.34-10.38-9.65-2.81-2.76-5.44-5.68-8.12-8.57-2.48-2.67-4.97-5.34-7.36-8.09-3.33-3.83-5.91-8.19-8.49-12.53-2.42-4.08-4.46-8.3-5.72-12.9-1.62-5.93-3.14-11.88-3.69-18.02-.34-3.78-.65-7.58-.7-11.37-.07-4.94.12-9.88.2-14.82,0-.12,0-.24.01-.36.31-3.09.6-6.19.95-9.28.3-2.57.59-5.15,1.04-7.7.61-3.38,1.23-6.77,2.09-10.1,1.44-5.55,2.82-11.13,4.68-16.54,1.87-5.42,4.1-10.74,6.53-15.93,2.49-5.32,5.14-10.59,8.21-15.59,3.35-5.46,7.15-10.67,10.97-15.83,2.78-3.76,5.84-7.33,8.93-10.85,2.06-2.35,4.37-4.49,6.63-6.67,2.14-2.07,4.3-4.12,6.56-6.06,3.22-2.78,6.43-5.59,9.84-8.12,6.19-4.6,12.58-8.95,19.44-12.49,5.97-3.08,12.12-5.83,18.23-8.64.77-.35,1.1-.77,1.31-1.48.26-.91.58-1.81.84-2.72.13-.46.23-.93.27-1.4.07-.77-.22-1.11-1.07-.89-4.78,1.24-9.61,2.21-14.12,4.41-6.67,3.26-13.57,6.05-19.66,10.4-3.34,2.39-6.72,4.74-10.03,7.18-2.31,1.7-4.55,3.51-6.8,5.29-.78.62-1.47,1.35-2.23,2-3.43,2.93-6.96,5.74-10.29,8.78-8.81,8.05-16.42,17.13-22.6,27.36-1.67,2.76-3.05,5.7-4.67,8.49-1.62,2.8-3.46,5.47-5.07,8.28-6.33,11.08-11.69,22.57-15,34.97-1.83,6.87-3.36,13.79-4.57,20.79-.08.47-.34.99-.68,1.31-1.52,1.45-3.03,2.86-4.98,3.84-3.72,1.87-6.38,5.12-9.44,7.84-.78.69-.85,1.67-.14,2.48.68.77,1.44,1.48,2.25,2.11,1.48,1.17,3.02,2.27,4.71,3.52-1.49.54-2.76.99-4.02,1.48-3.01,1.16-6.05,2.26-9,3.57-1.32.59-2.36,1.79-3.66,2.44-4.37,2.19-8.01,5.21-10.74,9.26-.32.48-.44,1.22-.37,1.81.23,2.18,1.77,3.48,3.37,4.73,1.66,1.29,3.25,2.69,4.96,3.91,3.31,2.36,6.07,5.45,9.8,7.24,1.42.68,2.85,1.33,4.26,1.99-.65.73-1.39,1.37-1.91,2.16-1.74,2.63-3.59,5.21-5.01,8-.75,1.48-.77,3.37-.94,5.09-.04.41.51,1.07.96,1.31,3.01,1.62,6.36,1.99,9.66,2.45,1.75.25,3.54.3,5.26.44-.58,3.37-1.07,6.68-1.72,9.95-.84,4.21-1.93,8.38-2.7,12.6-1.04,5.69-1.95,11.4-2.78,17.12-.38,2.6-.46,5.24-.59,7.87-.06,1.3.71,2.27,1.71,2.17,1.56-.15,3.15-.35,4.65-.8,1.91-.56,3.68-1.75,5.61-2.01,3.91-.52,7.46-1.98,11.07-3.36,1.64-.62,3.41-.9,5.37-1.39-.6,2.3-1.13,4.29-1.62,6.3-.81,3.33-1.06,6.71-.62,10.11.24,1.85.85,2.29,2.43,1.69,3.45-1.32,6.89-2.68,10.28-4.13,1.52-.65,2.94-1.54,4.54-2.4-.08.31-.11.49-.16.67-1.11,4-2.3,7.97-3.3,11.99-.89,3.59-1.76,7.22-2.27,10.88-.64,4.58-.87,9.22-1.33,13.83-.21,2.13,0,4.12,1.2,5.95.75,1.15,1.52,1.34,2.67.56.29-.19.64-.3.96-.44,3.61-1.68,7.29-3.23,10.81-5.07,2.82-1.47,5.45-3.31,8.19-4.94,3.36-2,6.72-4,10.14-5.89,1.89-1.04,3.9-1.86,6.01-2.86-.12,5.7.37,11.04,2.36,16.15.56,1.44,1.17,2.9,1.99,4.2,1.11,1.75,2.52,1.78,3.89.32.2-.22.52-.33.79-.47,1.24-.63,2.56-1.15,3.71-1.91,2.29-1.53,4.45-3.25,6.73-4.77.9-.6,2.01-1.24,3.02-1.24,3.19,0,3.73.35,3.99,3.14.16,1.66.23,3.34.33,5,.12,1.79.18,3.59.36,5.38.34,3.29.64,6.59,1.15,9.86.41,2.62.89,5.28,1.73,7.78.92,2.75,2.66,3.35,5.01,1.67,3.11-2.22,6.34-4.45,8.85-7.27,3.73-4.19,6.92-8.87,10.27-13.4,1.3-1.76,1.21-1.8,3.23-1.09,7.92,2.79,15.99,5.02,24.25,6.52,1.14.21,2.13.48,2.57,1.75.17.5.66.89,1.01,1.33,3.92,5.04,9.35,7.89,15.06,10.28,1.87.78,3.75,1.49,5.98.65,1.88-.71,4.23.35,4.88,1.83.78,1.79,1.99,3.18,3.44,4.38.53.44,1.3.84,1.97.84,3.83.03,7.66-.18,11.49-.07,3.13.09,6.11-.35,9.06-1.34,4.74-1.59,9.55-2.98,13.03-6.94.79-.9,1.91-.49,2.94-.42.85.06,1.75.1,2.55-.13,2.29-.66,4.36-1.68,5.86-3.69.75-1.01,1.88-1.73,2.75-2.66,1.16-1.26,2.47-2.46,3.28-3.93,1.91-3.44,3.85-6.91,4.4-10.79.69-.22,1.26-.37,1.8-.59,15.48-6.36,29.66-14.9,42.56-25.56,12.12-10.01,22.61-21.52,31.48-34.51,9.13-13.38,16.16-27.79,21.06-43.23,3.02-9.54,5.16-19.27,6.41-29.2.96-7.62,1.56-15.28,1.23-22.95-.3-6.78-.78-13.56-1.53-20.3-.73-6.61-2.27-13.11-5.21-19.11-4.45-9.1-10.22-17.31-17.28-24.62-6.13-6.35-12.29-12.66-18.84-18.61-5.49-4.99-11.4-9.39-17.42-13.69-14.07-10.04-29.6-17.24-45.73-23.18-4.04-1.49-8.43-2.13-12.7-2.88-3.25-.57-6.57-.82-9.87-.96-2.14-.09-4.19.36-6.08,1.72-1.66,1.2-3.67,1.91-5.52,2.84-.28.14-.65.21-.84.43-1.62,1.88-3.85,3.18-4.85,5.67-.82,2.07-1.79,3.99-2,6.3-.24,2.68-.92,5.33-1.58,7.94-.18.72-.86,1.51-1.53,1.86-2.12,1.13-4.38,1.92-6.83,2.02-.62.03-1.26.22-1.84.47-2.43,1.05-4.9,1.04-7.39.37-.87-.24-1.8-.57-2.28-1.74,3.45-.87,6.4-2.86,10.03-2.84,2.74.02,6.17-2.6,6.95-5.89.76-3.22,1-6.47.73-9.76-.07-.8.09-1.31.82-1.78,1.3-.85,2.6-1.74,3.72-2.8,2.49-2.37,5.42-4.02,8.39-5.66,3.35-1.85,5.9-4.35,5.66-8.56-.21-3.62-.47-7.24-.9-10.84-.18-1.52-.56-3.16-1.33-4.45-1.15-1.93-3.25-2.72-5.41-3.06-1.09-.17-2.23-.03-3.35-.03-.02-.12-.04-.24-.06-.37.58-.33,1.15-.66,1.73-1,.58-.34,1.21-.63,1.74-1.04,1.64-1.25,1.83-2.92.57-4.57-.44-.57-.92-1.11-1.33-1.7-3.13-4.54-7.27-7.94-12.05-10.58-3.34-1.84-6.85-2.59-10.58-1.22-.23.09-.53.01-.8.01-.08-.36-.14-.63-.19-.9-.43-2.39-1.52-4.46-3.16-6.22-.41-.44-1.13-.88-1.68-.85-3.91.2-7.8.6-11.71.78-4.32.2-8.48.94-12.37,2.93-2.83,1.45-5.63,3-8.74,3.82-.06.02-.1.11.07-.09-.17,1.9-.31,3.52-.45,5.14-.18.05-.36.1-.54.15-.59-.95-1.28-1.86-1.74-2.87-.45-.97-1.05-1.38-2.06-1.09-.49.14-1.04.28-1.43.59-1.74,1.4-3.59,2.71-5.1,4.34-3.83,4.14-6.26,9.12-8.16,14.38-.05.14,0,.32,0,.62,2.19-2.71,4.67-4.88,7.8-6.03,2.34-.86,4.84-1.29,7.3-1.79.68-.14,1.5-.02,2.16.23,3.32,1.24,6.55,2.76,9.92,3.8,2.49.77,5.16.99,7.75,1.43,2.16.36,3.48,1.49,3.92,3.74.54,2.8,1.87,5.24,3.81,7.35.5.54.93.72,1.73.62,1.89-.24,3.81-.38,5.7-.28,1.28.07,2.53.63,4.04,1.04-.99.55-1.6.94-2.25,1.24-1.41.65-2.78,1.49-4.26,1.83-5.59,1.29-11.22,2.43-16.84,3.6-.9.19-1.44.66-1.83,1.51-1.37,3.04-2.01,6.24-2.19,9.53-.14,2.67-.14,5.35-.23,8.03-.02.62-.08,1.14-.82,1.55-1.81,1-3.56,2.12-5.24,3.31-1.07.76-1.93,1.8-2.99,2.58-.97.71-1.66,1.53-1.72,2.73-.19,3.75-.33,7.49-.49,11.24,0,.15.02.33.1.47.62,1.16.25,2.34-.47,3.13-2.12,2.31-4.29,4.62-6.69,6.62-2.38,1.98-5.12,3.51-7.62,5.34-3.35,2.46-6.73,4.9-9.36,8.18-.38.48-.66,1.21-.64,1.81.09,2.87.42,5.74.42,8.61.01,4.91-.14,9.83-.24,14.74-.03,1.32-.07,2.64-.23,3.94-.34,2.8-1.09,5.4-2.97,7.68-1.68,2.04-3.69,3.6-5.75,5.19-4.2,3.25-8.26,6.69-12.47,9.93-2.67,2.06-5.73,3.59-9.02,4.24-4.41.88-8.82.5-13.02-1.25-.45,1.33-.84,2.63-1.32,3.89-1.14,3.01-2.34,6.01-3.49,9.02-.99,2.58-1.09,5.06.34,7.6,1.92,3.4,4.48,6.2,7.34,8.78.49.44.97.96,1.28,1.54.7,1.3,1.23,2.69,1.95,3.98,1.57,2.82,3.11,5.67,4.85,8.39.94,1.47,2.27,2.69,3.49,4.09.81-1.73,1.38-3.28,2.2-4.68,4.8-8.18,11.33-14.73,19.22-19.91,3.93-2.58,8.18-4.49,12.7-5.83,4.97-1.47,9.94-2.94,14.88-4.5,2.12-.67,4.23-1.46,6.22-2.44,3.14-1.55,6.03-3.7,9.29-4.9,6.83-2.53,13.85-4.45,21.21-2.06.65.21,1.23.63,1.84.96-.46.52-.85,1.12-1.39,1.55-.81.65-1.72,1.17-2.57,1.76-.36.25-.74.51-1.01.83-2.88,3.41-5.4,7.02-6.53,11.45-.38,1.5-.82,3.04-1.56,4.38-2.04,3.71-4.19,7.36-6.42,10.96-4.39,7.1-8.88,14.13-14.56,20.29-1.81,1.96-3.79,3.78-5.85,5.48-2.99,2.49-6.69,3.65-10.25,5.05-.48.19-.95.55-1.28.96-.6.74-1.11,1.56-1.64,2.36-.77,1.16-1.29,2.4-1.42,3.9.55-.15.93-.28,1.31-.36,2.01-.46,4.07-.79,6,.05,3.94,1.71,8.06,2.21,12.27,2.04,1.27-.05,2.62-.42,3.75-1,1.51-.78,2.93-1.8,4.23-2.9,1.01-.86,1.87-1.95,2.64-3.05.98-1.4,1.84-2.9,2.68-4.39,1.55-2.75,3.22-5.44,4.52-8.3,1.5-3.29,2.55-6.78,3.96-10.12,2.86-6.78,6.5-13.17,11.56-18.51,6.18-6.52,12.77-12.64,19.19-18.93.29-.28.64-.51.86-.83,2.61-3.95,5.45-7.77,7.73-11.9,2.07-3.75,3.54-7.83,5.24-11.78.61-1.43.94-3,1.67-4.35,2.03-3.75,4.22-7.41,6.32-11.12,2.48-4.38,6.1-7.23,11.13-7.92,2.05-.28,4.18-.15,6.25.02,1.38.12,2.71.67,4.07.99,2.25.53,4.36,1.84,6.82,1.12.67-.2,1.36-.37,2.05-.47,1.09-.16,1.3.17,1.1,1.25-.45,2.38-2.11,4.06-3.38,5.96-.16.24-.48.42-.76.54-1.66.69-3.29,1.46-4.99,2.02-2.67.87-4.92,2.44-6.96,4.24-5.34,4.71-9.65,10.31-13.49,16.27-3.2,4.96-6.25,10.03-9.36,15.05-1.82,2.93-3.46,5.93-4.35,9.31-.42,1.58-.83,3.26-1.71,4.59-2.06,3.13-4.04,6.38-7.44,8.37-.47.28-.75.95-1.02,1.48-.07.14.18.61.38.68,2.2.82,4.45,1.33,6.82.99,3.18-.45,6.39-.79,9.54-1.39,3.32-.63,6.38-2,9.28-3.75,2.1-1.27,4.16-2.69,6.41-3.63,2.58-1.08,5.35-1.69,8.03-2.51,4.4-1.33,8.86-2.52,13.19-4.05,2.9-1.02,5.68-2.42,8.42-3.82,3.91-1.99,7.39-4.63,10.53-7.68,2.27-2.21,4.38-4.6,6.51-6.96,2.52-2.78,4.51-5.93,6.02-9.36,1.02-2.3.95-2.25,2.73-.47,3.4,3.41,5.39,7.67,7.51,11.88,1.04,2.05,1.95,4.15,3.79,5.76,1.75,1.53,3.27,3.35,4.73,5.17,2.57,3.2,3.57,6.64,1.83,10.71-1.64,3.83-3,7.78-4.3,11.75-.36,1.08-.73,1.07-1.58.85-1.5-.4-3.02-.74-4.54-1.07-3.33-.72-6.6-.5-9.79.74-4.08,1.58-7.58,4.05-10.89,6.88-3.14,2.68-6.33,5.32-9.67,7.73-4.47,3.22-7.05,7.39-7.26,12.92-.14,3.62-.19,7.24-.24,10.87-.04,2.72-.04,5.44,0,8.15.03,1.42.13,2.85.34,4.25.33,2.15.23,4.04-1.54,5.71-4.65,4.38-9.6,8.37-15.07,11.65-2.81,1.68-4.93,4.05-7.07,6.42-.62.69-1.04,1.65-1.29,2.56-.18.63.15,1.39.14,2.09-.05,3.26-.09,6.53-.26,9.78-.06,1.27-.27,2.6-1.31,3.53-.97.87-1.93,1.75-2.97,2.52-1.76,1.3-3.52,2.63-5.41,3.72-.92.53-1.28,1.09-1.32,2.07-.14,3.37-.14,6.75-.53,10.09-.27,2.34-.99,4.65-1.72,6.9-.23.72-1.03,1.58-1.74,1.77-3.08.85-6.22,1.52-9.35,2.17-2.34.49-4.71.78-7.05,1.27-2.22.46-4.19,1.52-6.14,2.94.46.18.74.31,1.03.4,2.57.77,5.17.61,7.69-.06.97-.25,1.33.2,1.76.71,2.05,2.38,3.54,5.04,4.08,8.19.24,1.39,1.07,2.36,2.49,2.67,1.34.29,2.68.55,4.04.72,4.53.59,8.87,1.77,12.92,3.95,1.07.57,2.39,1.11,3.53,1.01,2.07-.18,4.14-.75,6.15-1.36,3.17-.95,5.69-2.94,7.96-5.3.29-.31.83-.39,1.25-.57,0,.43.14.91.01,1.29-1.5,4.4-3.64,8.46-6.48,12.13-1.95,2.52-4.26,4.7-7.04,6.25-1.79,1-2.94.83-3.78-1.31-.27-.69-.79-1.28-1.19-1.92-.15.04-.31.07-.46.11,0,1.1-.07,2.21.02,3.3.08,1.01-.16,1.57-1.25,1.87-1.6.45-3.16,1.09-4.71,1.73-2.96,1.23-5.81,2.75-8.85,3.71-4.06,1.28-8.37.83-12.57,1.25-1.69.17-3.37.37-5.06.44-.71.03-1.61.02-2.11-.38-1.64-1.29-2.66-3.09-3.37-5.03-.31-.86-.53-1.76-.76-2.56-4.02,1.19-7.8.76-11.37-1.18-4.07-2.2-7.54-5.2-10.59-8.66-1.18-1.35-2.18-2.87-3.22-4.34-.82-1.16-.7-2.97.33-3.87,1.03-.9,2.2-1.63,3.11-2.3-1.32-.2-2.95-.19-4.36-.75-1.28-.51-2.69-1.41-3.36-2.55-.91-1.53-1.43-3.41-1.64-5.2-.46-3.83-.99-7.64-.62-11.56.38-3.93,2.84-5.93,5.8-7.72,1.71-1.03,3.48-1.96,5.12-3.08,1.39-.95,2.67-2.09,3.92-3.21,1.75-1.57,4.67-2.27,3.57-5.84-.46-1.49.19-3.34.38-5.02.3-2.69.94-5.23,3.34-6.94,1.43-1.02,2.9-1.83,4.73-1.82.9,0,1.84-.05,2.68-.34,2.15-.75,4.25-1.63,6.48-2.51ZM347.47,98.31c.52-1.38.95-2.62,1.45-3.83,1.27-3.01,2.79-5.94,3.82-9.03,2.13-6.43,3.92-12.98,5.99-19.43,2.48-7.71,4.44-15.48,4.16-23.67-.06-1.82-.56-3.45-1.54-4.95-.16-.24-.6-.55-.8-.49-1.59.51-3.3.85-4.69,1.71-7.41,4.57-14.68,9.36-22.11,13.89-9.03,5.5-18.18,10.82-27.28,16.21-.9.53-1.82,1.04-2.72,1.56-.02.13-.04.27-.06.4,16.06,6.85,31.25,15.06,43.78,27.63ZM352.54,103.33c2.75,2.92,5.3,5.62,7.83,8.33,4.01,4.29,8.12,8.49,11.98,12.91,6.05,6.94,11.49,14.32,15.65,22.59.05.1.09.22.18.44.54-2.53.94-4.84,1.54-7.09,1.95-7.28,4.08-14.51,5.93-21.81,1.29-5.08,2.72-10.14,2.63-15.5-.06-3.54.03-7.04-.7-10.58-.54-2.64-1.84-4.68-3.24-6.8-2.7,1.34-5.24,2.79-7.92,3.89-6.46,2.65-13,5.1-19.48,7.69-4.78,1.91-9.51,3.91-14.4,5.93ZM296.52,66c0-1.88-.12-3.76.02-5.62.68-8.89.9-17.78.45-26.69-.32-6.4-2.28-12.27-5.22-17.86-.66-1.25-1.75-2.28-2.75-3.54-10.58,14.68-20.96,29.08-31.35,43.49,13.56.9,26.17,5.25,38.83,10.22ZM390.91,149.15c-.9.58-1.14,1.32-.92,2.29.59,2.61,1.33,5.2,1.67,7.84.67,5.23,1.13,10.48,1.64,15.73.35,3.58.64,7.16,1.01,10.74.05.52-.17,1.59.91,1.24,2.5-.81,5.09-1.49,7.39-2.72,3.79-2.03,7.35-4.5,11.06-6.7,2.49-1.47,3.6-3.79,4.14-6.43.39-1.91.23-3.72-1.67-4.96-.83-.54-1.48-1.34-2.26-1.96-3.95-3.17-7.74-6.59-11.94-9.39-3.42-2.28-7.35-3.81-11.03-5.67ZM299.41,67.59c.25.19.67.62,1.18.85.24.11.75-.05.98-.27,3.29-3.12,6.94-5.77,10.8-8.13,3.68-2.25,7.36-4.49,11.02-6.76.31-.19.67-.62.66-.93-.1-2.07-.36-4.13-.46-6.2-.21-4.31-1.62-8.09-4.65-11.22-.43-.45-.75-.6-1.31-.22-2.37,1.62-4.94,3.01-7.11,4.86-3.18,2.72-6.08,5.75-9.06,8.7-.31.31-.39.93-.43,1.42-.25,3.14-.41,6.29-.69,9.43-.24,2.7-.59,5.39-.93,8.47ZM239.53,242.66c0,.22.01.44.02.66.85.28,1.71.81,2.56.79,1.68-.03,3.35-.35,5.01-.6.57-.08.94-.11,1.17.58.43,1.31,1.43,2,2.78,2.24.27.05.67.23.72.43.06.22-.17.57-.35.8-.88,1.11-1.87,2.14-2.68,3.3-2.02,2.88-3.96,5.81-6.01,8.84,1.34-.48,2.79-.77,3.99-1.48,2.55-1.52,5.05-3.15,7.4-4.95,2.3-1.76,4.58-3.62,6.25-6.03,2.97-4.29,5.32-8.9,6.93-13.87.6-1.86,1.11-3.74.62-5.76-.27-1.11-.74-1.51-1.7-.92-1.83,1.12-3.63,2.32-5.37,3.57-2.29,1.65-4.37,3.63-6.79,5.03-3.78,2.18-7.77,3.99-11.67,5.95-.96.48-1.92.96-2.88,1.43ZM236.79,15.26c.09.37.09.46.13.51,1.93,2.43,3.86,4.86,5.82,7.26.25.31.67.59,1.05.68,2.02.45,4.09.71,6.08,1.25,6.02,1.62,12.03,3.3,18.01,5.07.88.26,1.35.21,1.89-.46,1.28-1.58,2.55-3.17,3.89-4.7.78-.89.47-1.48-.44-1.81-2.02-.73-4.05-1.48-6.13-2.01-2.51-.63-5.15-.83-7.62-1.58-6.05-1.84-12.16-3.38-18.44-4.2-1.36-.18-2.76-.03-4.24-.03ZM351.86,98.36c6.61-3.48,13.56-5.96,20.42-8.62.32-.13.7-.66.7-1-.08-3.38-.28-6.76-.36-10.14-.04-1.57-.54-2.94-1.44-4.34-3.7,2.03-7.36,4.06-11.03,6.05-.71.39-1.08.91-1.36,1.67-1.23,3.41-2.46,6.83-3.85,10.17-.88,2.12-2.04,4.13-3.08,6.19ZM403.03,149.92c.6-1.11,1.16-2.3,1.85-3.41,2.04-3.28,2.3-6.81,1.57-10.48-.08-.38-.58-.88-.96-.96-3.12-.67-6.25-1.25-9.38-1.88-.68-.14-.98.05-1.17.76-.82,3.04-1.71,6.05-2.58,9.07-.32,1.13-.63,2.26-.91,3.26,3.94,1.24,7.72,2.43,11.57,3.64ZM307.7,198.38c2.56,1.06,4.15-.04,5.48-1.99,1.52-2.23,3.1-4.42,4.69-6.6,1.28-1.76,1.18-3.51-.36-4.82-3.03-2.56-9.36-3.15-12.73-.97-.89.58-1.48,1.39-1.25,2.72.49-.26.98-.39,1.26-.71.79-.89,1.58-.72,2.41-.15,1.06.74,2.11,1.49,3.15,2.25.75.55.67,1.35.4,2.05-.88,2.29-1.86,4.54-2.76,6.82-.18.45-.2.96-.28,1.39ZM143.02,222.21c-.64-7.61-.98-15.29-2.91-22.91-2.86,2.67-5.56,5.19-8.09,7.56,3.72,5.18,7.35,10.26,11.01,15.36ZM272.94,233.83l-.47-.1c-.15.3-.35.58-.44.9-1.29,4.41-2.52,8.85-3.88,13.24-.53,1.7-1.03,3.55-2.1,4.89-1.41,1.76-3.32,3.14-5.09,4.59-2.06,1.69-4.38,2.87-6.85,3.94-3.43,1.48-6.87,2.68-10.54,3.3-1.74.29-3.53.6-4.96,2.23.62.06,1.08.19,1.51.12,1.54-.24,3.08-.53,4.61-.85,1.49-.31,2.96-1.01,4.44-.98,2.63.05,4.93-.86,7.23-1.85,3.84-1.65,6.77-4.51,9.82-7.28,1.81-1.64,2.79-3.56,3.4-5.74.9-3.23,1.7-6.49,2.39-9.76.46-2.18.65-4.42.96-6.63ZM169.56,222.68c-5.05-3.26-8.9-7.28-12.17-11.92.87,5.98.69,12.22,4.57,17.6,2.56-1.91,5-3.73,7.6-5.67ZM393.34,203.63c1.77-1.41,3.41-2.61,4.91-3.95.97-.87,1.99-1.83,2.54-2.97.56-1.17.79-2.61.73-3.91-.02-.6-1.03-1.2-1.65-1.72-1.18-1-2.44-1.78-4.11-1.63-.64.06-.91.22-.97.89-.2,2.42-.44,4.83-.7,7.25-.21,1.93-.47,3.85-.75,6.04ZM164.68,186.65c-2.28.71-4.53,1.42-6.58,2.06,2.77,4.38,5.55,8.77,8.36,13.21,1.27-5.29.03-10.29-1.78-15.27ZM179.42,179.75c1.41,1.25,2.71,2.31,3.9,3.48,1.2,1.18,2.29,2.48,3.44,3.74.76-3.68-.06-7.1-1.66-10.66-1.91,1.16-3.75,2.28-5.68,3.44ZM300.44,37.42c.25,1.64.4,3.3.79,4.91.26,1.07,1.71,1.42,2.37.71.98-1.04,1.9-2.14,2.92-3.14.87-.84.6-1.47-.24-2.01-1.04-.66-2.12-1.26-3.19-1.87-2.26-1.29-2.49-1.16-2.66,1.39ZM185.36,199.6c-3.2-.14-5.03-2.37-7.23-3.95-.1.07-.2.14-.3.2,1.43,2.8,2.87,5.6,4.3,8.39l.42-.09c.89-1.44,1.78-2.89,2.81-4.56Z"
     id="path2" />
  <path
     class="cls-1"
     d="M218.48,283.98c-2.23.87-4.33,1.76-6.48,2.51-.84.29-1.78.35-2.68.34-1.84-.01-3.3.79-4.73,1.82-2.4,1.71-3.03,4.24-3.34,6.94-.19,1.68-.84,3.53-.38,5.02,1.1,3.57-1.82,4.27-3.57,5.84-1.26,1.13-2.54,2.26-3.92,3.21-1.64,1.13-3.41,2.05-5.12,3.08-2.96,1.79-5.43,3.78-5.8,7.72-.37,3.92.15,7.73.62,11.56.22,1.79.74,3.67,1.64,5.2.67,1.13,2.08,2.04,3.36,2.55,1.41.56,3.04.55,4.36.75-.91.67-2.08,1.4-3.11,2.3-1.03.9-1.15,2.71-.33,3.87,1.04,1.47,2.03,2.99,3.22,4.34,3.05,3.46,6.51,6.46,10.59,8.66,3.57,1.93,7.35,2.37,11.37,1.18.23.8.45,1.7.76,2.56.71,1.95,1.73,3.74,3.37,5.03.5.39,1.4.41,2.11.38,1.69-.08,3.38-.27,5.06-.44,4.19-.42,8.51.02,12.57-1.25,3.04-.95,5.89-2.48,8.85-3.71,1.54-.64,3.1-1.28,4.71-1.73,1.09-.3,1.33-.86,1.25-1.87-.09-1.1-.02-2.2-.02-3.3.15-.04.31-.07.46-.11.4.64.92,1.23,1.19,1.92.83,2.14,1.98,2.31,3.78,1.31,2.78-1.56,5.09-3.73,7.04-6.25,2.84-3.68,4.98-7.74,6.48-12.13.13-.38,0-.86-.01-1.29-.42.18-.95.26-1.25.57-2.27,2.36-4.79,4.35-7.96,5.3-2.01.6-4.07,1.17-6.15,1.36-1.15.1-2.47-.44-3.53-1.01-4.06-2.18-8.39-3.37-12.92-3.95-1.36-.18-2.7-.44-4.04-.72-1.42-.31-2.25-1.28-2.49-2.67-.54-3.15-2.03-5.81-4.08-8.19-.44-.51-.8-.96-1.76-.71-2.53.66-5.13.83-7.69.06-.29-.09-.57-.22-1.03-.4,1.96-1.42,3.92-2.47,6.14-2.94,2.34-.49,4.71-.79,7.05-1.27,3.13-.65,6.27-1.32,9.35-2.17.7-.19,1.5-1.05,1.74-1.77.73-2.26,1.45-4.56,1.72-6.9.39-3.34.39-6.72.53-10.09.04-.98.4-1.54,1.32-2.07,1.89-1.09,3.65-2.42,5.41-3.72,1.04-.77,2.01-1.65,2.97-2.52,1.04-.94,1.25-2.26,1.31-3.53.16-3.26.2-6.52.26-9.78.01-.7-.31-1.45-.14-2.09.25-.91.67-1.87,1.29-2.56,2.14-2.37,4.26-4.74,7.07-6.42,5.47-3.28,10.42-7.27,15.07-11.65,1.77-1.67,1.87-3.56,1.54-5.71-.21-1.4-.32-2.83-.34-4.25-.05-2.72-.05-5.44,0-8.15.05-3.62.11-7.25.24-10.87.21-5.53,2.79-9.7,7.26-12.92,3.34-2.41,6.53-5.05,9.67-7.73,3.31-2.83,6.81-5.29,10.89-6.88,3.19-1.24,6.45-1.47,9.79-.74,1.52.33,3.04.68,4.54,1.07.84.22,1.22.24,1.58-.85,1.3-3.96,2.67-7.92,4.3-11.75,1.74-4.07.73-7.51-1.83-10.71-1.46-1.82-2.99-3.63-4.73-5.17-1.83-1.61-2.75-3.71-3.79-5.76-2.12-4.21-4.12-8.47-7.51-11.88-1.78-1.78-1.71-1.83-2.73.47-1.52,3.43-3.5,6.58-6.02,9.36-2.13,2.35-4.23,4.75-6.51,6.96-3.14,3.05-6.62,5.69-10.53,7.68-2.75,1.4-5.53,2.8-8.42,3.82-4.33,1.52-8.79,2.71-13.19,4.05-2.69.81-5.45,1.43-8.03,2.51-2.25.94-4.3,2.36-6.41,3.63-2.9,1.75-5.96,3.12-9.28,3.75-3.15.6-6.36.94-9.54,1.39-2.37.34-4.62-.18-6.82-.99-.19-.07-.44-.54-.38-.68.27-.54.54-1.21,1.02-1.48,3.4-1.99,5.38-5.24,7.44-8.37.88-1.33,1.29-3.01,1.71-4.59.89-3.38,2.53-6.38,4.35-9.31,3.12-5.02,6.16-10.08,9.36-15.05,3.84-5.96,8.16-11.56,13.49-16.27,2.04-1.8,4.29-3.38,6.96-4.24,1.7-.55,3.34-1.32,4.99-2.02.28-.12.6-.29.76-.54,1.27-1.9,2.94-3.57,3.38-5.96.2-1.08-.01-1.41-1.1-1.25-.69.1-1.38.28-2.05.47-2.46.72-4.57-.59-6.82-1.12-1.36-.32-2.7-.87-4.07-.99-2.07-.18-4.2-.3-6.25-.02-5.03.68-8.65,3.53-11.13,7.92-2.1,3.71-4.29,7.37-6.32,11.12-.73,1.35-1.06,2.92-1.67,4.35-1.69,3.95-3.17,8.03-5.24,11.78-2.28,4.13-5.12,7.96-7.73,11.9-.21.32-.57.55-.86.83-6.42,6.29-13.01,12.41-19.19,18.93-5.06,5.34-8.69,11.73-11.56,18.51-1.41,3.34-2.47,6.83-3.96,10.12-1.3,2.86-2.97,5.56-4.52,8.3-.84,1.49-1.7,2.99-2.68,4.39-.77,1.1-1.63,2.19-2.64,3.05-1.3,1.11-2.72,2.13-4.23,2.9-1.13.58-2.48.95-3.75,1-4.21.18-8.33-.32-12.27-2.04-1.93-.84-4-.51-6-.05-.39.09-.77.21-1.31.36.13-1.5.65-2.74,1.42-3.9.53-.8,1.03-1.62,1.64-2.36.33-.4.8-.76,1.28-.96,3.56-1.4,7.25-2.56,10.25-5.05,2.05-1.71,4.04-3.53,5.85-5.48,5.68-6.16,10.18-13.19,14.56-20.29,2.23-3.6,4.37-7.25,6.42-10.96.74-1.34,1.18-2.88,1.56-4.38,1.13-4.43,3.65-8.03,6.53-11.45.28-.33.65-.58,1.01-.83.85-.59,1.76-1.11,2.57-1.76.53-.43.93-1.03,1.39-1.55-.61-.32-1.19-.75-1.84-.96-7.36-2.39-14.37-.47-21.21,2.06-3.25,1.2-6.15,3.35-9.29,4.9-1.99.98-4.1,1.77-6.22,2.44-4.94,1.57-9.91,3.03-14.88,4.5-4.51,1.34-8.77,3.25-12.7,5.83-7.9,5.19-14.42,11.74-19.22,19.91-.82,1.4-1.4,2.95-2.2,4.68-1.22-1.4-2.54-2.62-3.49-4.09-1.74-2.72-3.28-5.56-4.85-8.39-.72-1.29-1.24-2.68-1.95-3.98-.31-.58-.79-1.09-1.28-1.54-2.86-2.58-5.43-5.38-7.34-8.78-1.43-2.54-1.33-5.02-.34-7.6,1.16-3.01,2.35-6.01,3.49-9.02.48-1.26.87-2.56,1.32-3.89,4.2,1.75,8.61,2.13,13.02,1.25,3.29-.65,6.35-2.18,9.02-4.24,4.21-3.24,8.26-6.68,12.47-9.93,2.06-1.59,4.07-3.15,5.75-5.19,1.88-2.28,2.63-4.88,2.97-7.68.16-1.3.2-2.63.23-3.94.1-4.91.25-9.83.24-14.74,0-2.87-.34-5.74-.42-8.61-.02-.6.26-1.34.64-1.81,2.63-3.28,6.02-5.72,9.36-8.18,2.5-1.84,5.24-3.37,7.62-5.34,2.41-2,4.57-4.31,6.69-6.62.72-.79,1.1-1.96.47-3.13-.07-.13-.1-.31-.1-.47.15-3.75.3-7.49.49-11.24.06-1.2.75-2.02,1.72-2.73,1.06-.78,1.92-1.82,2.99-2.58,1.69-1.19,3.43-2.32,5.24-3.31.74-.41.8-.93.82-1.55.09-2.68.09-5.36.23-8.03.18-3.29.82-6.49,2.19-9.53.38-.86.92-1.32,1.83-1.51,5.62-1.17,11.25-2.31,16.84-3.6,1.48-.34,2.86-1.18,4.26-1.83.65-.3,1.25-.68,2.25-1.24-1.5-.41-2.76-.97-4.04-1.04-1.89-.11-3.82.04-5.7.28-.8.1-1.23-.08-1.73-.62-1.95-2.11-3.27-4.55-3.81-7.35-.44-2.25-1.76-3.37-3.92-3.74-2.59-.44-5.26-.66-7.75-1.43-3.38-1.05-6.6-2.56-9.92-3.8-.66-.25-1.48-.37-2.16-.23-2.45.51-4.96.94-7.3,1.79-3.12,1.15-5.61,3.32-7.8,6.03,0-.3-.05-.48,0-.62,1.9-5.26,4.33-10.24,8.16-14.38,1.5-1.63,3.36-2.93,5.1-4.34.39-.31.93-.45,1.43-.59,1.02-.29,1.62.12,2.06,1.09.46,1.01,1.15,1.92,1.74,2.87.18-.05.36-.1.54-.15.14-1.62.29-3.25.45-5.14-.17.2-.13.1-.07.09,3.11-.82,5.91-2.37,8.74-3.82,3.89-1.99,8.04-2.73,12.37-2.93,3.91-.18,7.8-.58,11.71-.78.55-.03,1.27.41,1.68.85,1.64,1.76,2.73,3.83,3.16,6.22.05.27.12.54.19.9.27,0,.56.07.8-.01,3.74-1.36,7.24-.62,10.58,1.22,4.78,2.64,8.92,6.04,12.05,10.58.41.59.89,1.13,1.33,1.7,1.26,1.65,1.06,3.32-.57,4.57-.53.41-1.16.7-1.74,1.04-.57.34-1.15.67-1.73,1,.02.12.04.24.06.37,1.12,0,2.26-.14,3.35.03,2.16.34,4.26,1.13,5.41,3.06.77,1.29,1.15,2.92,1.33,4.45.42,3.6.69,7.22.9,10.84.24,4.21-2.31,6.71-5.66,8.56-2.97,1.64-5.9,3.3-8.39,5.66-1.12,1.06-2.42,1.96-3.72,2.8-.72.47-.88.98-.82,1.78.27,3.29.03,6.54-.73,9.76-.78,3.29-4.2,5.91-6.95,5.89-3.63-.03-6.57,1.97-10.03,2.84.48,1.17,1.41,1.5,2.28,1.74,2.49.67,4.97.67,7.39-.37.58-.25,1.22-.45,1.84-.47,2.45-.1,4.71-.88,6.83-2.02.67-.36,1.35-1.15,1.53-1.86.66-2.62,1.34-5.27,1.58-7.94.21-2.31,1.17-4.24,2-6.3,1-2.5,3.23-3.79,4.85-5.67.19-.22.56-.28.84-.43,1.85-.93,3.86-1.64,5.52-2.84,1.89-1.36,3.94-1.81,6.08-1.72,3.3.14,6.62.39,9.87.96,4.28.75,8.66,1.39,12.7,2.88,16.13,5.94,31.66,13.14,45.73,23.18,6.02,4.29,11.93,8.7,17.42,13.69,6.54,5.94,12.7,12.25,18.84,18.61,7.06,7.31,12.82,15.52,17.28,24.62,2.94,6,4.47,12.5,5.21,19.11.75,6.74,1.23,13.52,1.53,20.3.34,7.67-.27,15.33-1.23,22.95-1.25,9.93-3.38,19.66-6.41,29.2-4.9,15.44-11.93,29.85-21.06,43.23-8.86,12.99-19.36,24.5-31.48,34.51-12.9,10.66-27.08,19.19-42.56,25.56-.54.22-1.12.37-1.8.59-.55,3.88-2.5,7.34-4.4,10.79-.81,1.47-2.12,2.67-3.28,3.93-.86.94-2,1.65-2.75,2.66-1.5,2.02-3.57,3.03-5.86,3.69-.8.23-1.7.2-2.55.13-1.03-.07-2.15-.48-2.94.42-3.48,3.96-8.3,5.35-13.03,6.94-2.95.99-5.93,1.43-9.06,1.34-3.82-.11-7.66.1-11.49.07-.67,0-1.44-.4-1.97-.84-1.45-1.2-2.66-2.6-3.44-4.38-.65-1.49-3.01-2.54-4.88-1.83-2.23.84-4.11.13-5.98-.65-5.71-2.39-11.14-5.24-15.06-10.28-.34-.44-.83-.83-1.01-1.33-.44-1.27-1.43-1.55-2.57-1.75-8.27-1.49-16.34-3.73-24.25-6.52-2.02-.71-1.93-.67-3.23,1.09-3.35,4.52-6.54,9.21-10.27,13.4-2.51,2.82-5.74,5.05-8.85,7.27-2.35,1.68-4.09,1.08-5.01-1.67-.84-2.51-1.32-5.16-1.73-7.78-.51-3.27-.82-6.57-1.15-9.86-.18-1.79-.24-3.59-.36-5.38-.11-1.67-.18-3.34-.33-5-.26-2.78-.8-3.13-3.99-3.14-1.01,0-2.12.64-3.02,1.24-2.29,1.52-4.45,3.24-6.73,4.77-1.15.77-2.47,1.28-3.71,1.91-.27.14-.59.26-.79.47-1.37,1.46-2.78,1.43-3.89-.32-.82-1.3-1.43-2.75-1.99-4.2-1.99-5.1-2.48-10.45-2.36-16.15-2.11.99-4.12,1.81-6.01,2.86-3.42,1.89-6.78,3.89-10.14,5.89-2.74,1.63-5.37,3.47-8.19,4.94-3.53,1.84-7.2,3.4-10.81,5.07-.32.15-.67.25-.96.44-1.15.78-1.92.58-2.67-.56-1.21-1.84-1.42-3.83-1.2-5.95.46-4.61.7-9.25,1.33-13.83.51-3.66,1.38-7.28,2.27-10.88.99-4.02,2.19-8,3.3-11.99.05-.18.09-.36.16-.67-1.6.85-3.02,1.75-4.54,2.4-3.4,1.45-6.83,2.81-10.28,4.13-1.58.6-2.19.16-2.43-1.69-.44-3.4-.2-6.78.62-10.11.49-2,1.03-4,1.62-6.3-1.96.5-3.73.77-5.37,1.39-3.62,1.38-7.17,2.84-11.07,3.36-1.92.26-3.7,1.45-5.61,2.01-1.5.44-3.08.64-4.65.8-1.01.1-1.78-.87-1.71-2.17.12-2.63.21-5.27.59-7.87.83-5.72,1.74-11.43,2.78-17.12.77-4.22,1.86-8.39,2.7-12.6.65-3.28,1.15-6.59,1.72-9.95-1.72-.14-3.5-.19-5.26-.44-3.31-.46-6.66-.83-9.66-2.45-.45-.24-1-.9-.96-1.31.17-1.72.19-3.6.94-5.09,1.42-2.8,3.27-5.38,5.01-8,.52-.79,1.26-1.43,1.91-2.16-1.42-.66-2.85-1.31-4.26-1.99-3.73-1.79-6.49-4.88-9.8-7.24-1.71-1.22-3.3-2.62-4.96-3.91-1.6-1.25-3.14-2.55-3.37-4.73-.06-.59.05-1.33.37-1.81,2.73-4.06,6.37-7.07,10.74-9.26,1.3-.65,2.34-1.85,3.66-2.44,2.95-1.31,5.99-2.4,9-3.57,1.26-.49,2.54-.93,4.02-1.48-1.69-1.26-3.23-2.35-4.71-3.52-.81-.64-1.57-1.34-2.25-2.11-.71-.81-.64-1.79.14-2.48,3.06-2.72,5.72-5.97,9.44-7.84,1.95-.98,3.46-2.39,4.98-3.84.34-.32.6-.84.68-1.31,1.21-7,2.74-13.92,4.57-20.79,3.31-12.4,8.67-23.89,15-34.97,1.6-2.81,3.44-5.48,5.07-8.28,1.62-2.79,3-5.73,4.67-8.49,6.18-10.23,13.79-19.31,22.6-27.36,3.33-3.04,6.86-5.85,10.29-8.78.76-.65,1.45-1.38,2.23-2,2.25-1.79,4.49-3.59,6.8-5.29,3.31-2.44,6.68-4.79,10.03-7.18,6.09-4.35,12.99-7.15,19.66-10.4,4.51-2.2,9.34-3.17,14.12-4.41.85-.22,1.14.12,1.07.89-.04.47-.14.94-.27,1.4-.26.91-.57,1.81-.84,2.72-.21.71-.54,1.13-1.31,1.48-6.11,2.81-12.26,5.56-18.23,8.64-6.86,3.54-13.25,7.89-19.44,12.49-3.41,2.53-6.61,5.35-9.84,8.12-2.25,1.94-4.41,4-6.56,6.06-2.26,2.18-4.56,4.32-6.63,6.67-3.09,3.52-6.15,7.09-8.93,10.85-3.82,5.16-7.61,10.36-10.97,15.83-3.07,5-5.72,10.27-8.21,15.59-2.43,5.19-4.66,10.51-6.53,15.93-1.86,5.41-3.25,10.99-4.68,16.54-.86,3.32-1.49,6.71-2.09,10.1-.46,2.55-.75,5.13-1.04,7.7-.36,3.09-.64,6.19-.95,9.28-.01.12-.01.24-.01.36-.08,4.94-.27,9.88-.2,14.82.05,3.79.36,7.59.7,11.37.55,6.14,2.06,12.09,3.69,18.02,1.26,4.6,3.29,8.82,5.72,12.9,2.59,4.35,5.16,8.7,8.49,12.53,2.39,2.75,4.88,5.42,7.36,8.09,2.68,2.88,5.32,5.81,8.12,8.57,3.37,3.31,6.82,6.54,10.38,9.65,3.26,2.84,6.63,5.56,10.09,8.17,3.44,2.59,7.06,4.94,10.55,7.47,1.18.86,2.19,1.95,3.28,2.93,1.96,1.76,3.92,3.52,5.88,5.29,2.06,1.85,4.52,2.8,7.2,3.29,4.02.73,7.88,1.94,11.67,3.5,4.69,1.93,9.42,3.83,14.24,5.39,3.4,1.1,6.98,1.65,10.5,2.38,2.49.52,4.98,1.05,7.5,1.37,1.52.19,3.09,0,4.64-.06.71-.03,1.41-.2,2.12-.19,1.55.01,2.51-1.16,3.74-1.78,1.85-.93,3.73-1.8,5.59-2.69.14-.07.29-.13.39-.24,1.9-2.02,4.04-3.74,5.34-6.38,1.3-2.64,1.62-5.35,2-8.14.32-2.38.39-4.91,2.08-6.83.57-.65,1.51-1.1,2.36-1.34,1.87-.53,3.81-.83,5.7-1.29,1.28-.31,2.52-.88,3.81-1.08,2.25-.34,4.44-.08,6.37,1.33ZM65.48,328.25c0,1.26.09,2.31-.02,3.34-.19,1.81.59,3.28,1.5,4.7.22.35.88.73,1.22.65,1.47-.36,3.01-.67,4.31-1.4,3.06-1.73,6.01-3.65,8.98-5.55,3.56-2.28,7.05-4.67,10.64-6.89,5.58-3.47,11.19-6.88,16.84-10.24,4.74-2.81,9.57-5.49,14.34-8.27.71-.41,1.28-1.05,1.92-1.58-.66-.51-1.26-1.15-2-1.51-3.37-1.64-6.85-3.08-10.17-4.82-4.64-2.42-9.27-4.86-13.72-7.61-6.31-3.89-12.05-8.57-17.39-13.72-.75-.73-1.14-.64-1.51.36-.44,1.17-.79,2.37-1.27,3.52-1.09,2.59-2.47,5.09-3.33,7.75-2.73,8.46-5.31,16.97-7.89,25.48-1.58,5.21-2.67,10.51-2.43,15.78ZM29.98,272.22c0,1.28-.04,2.56,0,3.83.16,4.05.9,7.9,3.52,11.21.63.8,1,.83,1.81.41,2.84-1.47,5.63-3.07,8.59-4.26,7.12-2.88,14.35-5.51,21.5-8.34,3.41-1.35,6.74-2.91,10.11-4.39.58-.25,1.15-.54.46-1.29-1.44-1.58-2.8-3.24-4.3-4.75-6.02-6.05-12.12-12.01-17.34-18.8-2.29-2.98-4.72-5.88-6.82-8.99-2.2-3.27-4.08-6.76-6.12-10.14-.18-.3-.54-.73-.78-.71-.3.03-.59.44-.81.74-.15.21-.18.51-.23.77-.28,1.54-.43,3.11-.84,4.62-2.15,7.98-4.45,15.92-6.52,23.92-1.37,5.29-2.77,10.61-2.24,16.17ZM131.21,329.67c0,2.82-.03,5.64.01,8.46.02,1.54.12,3.09.24,4.63.08.97.15,1.97.41,2.9.52,1.92,1.09,3.83,1.77,5.7,1.18,3.28,2.26,6.62,4.89,9.13,1.06,1.01,1.43.96,2.29-.25,2.46-3.48,4.93-6.96,7.43-10.42,3.98-5.48,8-10.93,11.98-16.42,3.61-4.97,7.18-9.97,10.76-14.97.21-.3.33-.67.49-1-.39-.12-.78-.31-1.19-.34-2.16-.19-4.37-.14-6.48-.56-3.55-.7-7.04-1.71-10.56-2.56-6.96-1.67-13.75-3.84-20.28-6.79-.9-.41-1.27-.15-1.27.8,0,.72.03,1.45,0,2.17-.15,3.09-.38,6.17-.46,9.25-.08,3.42-.02,6.84-.02,10.26ZM10.09,203.7c.34.9.47,2.36,1.26,3.12,2.7,2.6,5.54,5.06,8.49,7.36,2.74,2.14,5.58,4.19,8.57,5.96,2.82,1.67,5.88,2.94,8.85,4.35.27.13.83.12,1-.07.68-.76,1.05-1.68.83-2.72-.34-1.56-.76-3.11-1.07-4.68-.55-2.76-1.13-5.52-1.52-8.3-.31-2.27-.33-4.57-.52-6.86-.3-3.5-.62-6.99-.95-10.48-.14-1.53-.28-3.06-.5-4.58-.1-.69-.45-1.16-1.33-.74-.84.41-1.74.69-2.62,1-1.43.49-3.01.73-4.29,1.47-4.02,2.33-7.9,4.93-11.91,7.27-2.96,1.72-3.49,4.6-4.28,7.88ZM129.55,306.23c.14-.08.29-.15.43-.23-.49-.43-.93-.92-1.47-1.29-.53-.36-1.09-.58-1.69.05-.79.83-1.7,1.54-2.54,2.33-3.13,2.9-6.79,5.03-10.39,7.25-2.93,1.81-5.89,3.56-8.79,5.4-.45.29-.94.95-.94,1.44,0,1.44.23,2.89.42,4.33.29,2.25.55,4.5.96,6.73.49,2.69,2.21,4.71,3.97,6.68.55.61,1.05.57,1.77.16,6.32-3.59,11.65-8.34,16.38-13.81.23-.27.38-.68.41-1.03.19-2.56.29-5.13.5-7.69.29-3.44.65-6.88.97-10.31ZM186.87,113.38c-.82.11-1.35.09-1.81.26-1.45.54-2.93,1.05-4.3,1.76-4.87,2.55-9.06,6-12.48,10.27-3.56,4.45-5.92,9.57-7.51,15.02-.45,1.54-.44,3.23-.46,4.85-.02,1.33,1.01,2.48,2.46,1.46,1.47-1.03,3.02-1.93,4.49-2.96,3.19-2.25,6.26-4.69,9.55-6.79,2.27-1.45,4.83-2.46,7.28-3.63,1.47-.71,3.02-1.27,4.46-2.04,1.15-.61,1.1-1.58-.08-2.13-.71-.32-1.54-.57-2.3-.54-1.74.07-3.46.33-5.29.53-.45-1.68-1.82-2.55-3.48-2.87,1.58-2.25,3.09-4.45,4.65-6.62,1.52-2.12,3.09-4.22,4.83-6.59ZM55.57,291.14c-.08.01-.16.02-.24.03.11,1.14.34,2.29.29,3.42-.07,1.53.37,2.85,1.04,4.18.4.79.78.93,1.56.5,3.09-1.7,6.19-3.38,9.31-5.01,1.72-.9,2.64-2.23,3.29-4.1,1.37-3.9,3.07-7.68,4.66-11.5.39-.93.93-1.8,1.3-2.74.13-.33-.02-.78-.04-1.17-.36.06-.77.04-1.08.19-2.04.99-4.02,2.14-6.11,3.01-4.5,1.87-9.07,3.6-13.6,5.41-.3.12-.7.4-.74.66-.15,1.05-.29,2.12-.22,3.17.08,1.33.37,2.64.57,3.96ZM284.24,177.1c.55-.16.89-.18,1.13-.34,1.43-1.01,2.88-1.99,4.23-3.1,1.24-1.01,2.38-2.15,3.52-3.27,1.63-1.59,3.24-3.2,4.84-4.83.64-.65.52-1.32,0-2.03-1.38-1.85-2.82-3.68-4.07-5.61-2.42-3.74-5.54-7.02-7.39-11.14-.24-.54-.81-.98-1.31-1.36-.98-.73-1.69-.48-1.81.71-.21,2.14-.53,4.31-.35,6.44.53,6.27,1.24,12.53,1.97,18.79.22,1.9.29,3.73-.75,5.74ZM256.36,153.98c2.1-.65,2.94-.47,4.48,1.11.92.94,1.84,1.89,2.77,2.82,3.4,3.37,6.5,6.94,7.98,11.63.07.22.35.52.54.52.2,0,.49-.28.57-.5.29-.86.64-1.74.74-2.63.45-4.1.41-8.21-.25-12.29-.57-3.49-1.45-6.86-3.64-9.76-.56-.74-1.07-.95-2-.55-3.19,1.38-5.68,3.71-8.21,5.95-1.17,1.03-1.99,2.45-2.97,3.69ZM25.85,222.88c-.33.34-.69.61-.91.98-.66,1.11-1.32,2.23-1.85,3.4-.51,1.12-.86,2.31-1.28,3.47-.73,2.04-.33,4.13-.18,6.2.06.88.23,1.77,1.51,1.98,2.77.46,5.51,1.08,8.27,1.64,2.02.41,2.44.2,2.87-1.36,1.05-3.79,2.06-7.6,3.19-11.37.28-.93,0-1.19-.79-1.42-2.95-.86-5.9-1.74-8.84-2.65-.62-.19-1.21-.53-1.98-.88ZM272.91,183.97c-1.24-2.09-2.44-4.02-3.56-5.99-2.16-3.77-4.28-7.56-6.43-11.34-.2-.34-.48-.63-.71-.96-.43-.64-.88-.56-1.16.06-.54,1.19-1.32,2.38-1.43,3.63-.26,2.85-.39,5.74-.18,8.59.14,1.95.87,3.88,1.44,5.78.37,1.23.93,2.41,1.46,3.75,3.63-.46,7.11-2.04,10.58-3.51ZM191.17,106.23c-5.63-.25-10.74,1.53-15.97,2.44-3.17.55-6.02,2.33-8.51,4.46-1.7,1.45-3.38,2.93-4.94,4.53-.89.91-1.74,1.99-2.22,3.15-.84,2.01-1.48,4.12-2.03,6.24-1.04,3.97-1.98,7.98-1.98,12.13,0,.51.15,1.02.23,1.53.13.01.27.03.4.04.46-1.09,1.03-2.14,1.36-3.26,1.19-3.97,2.22-7.99,3.47-11.94.54-1.73,1.05-3.75,2.27-4.93,3.32-3.21,6.74-6.23,11.3-7.96,3.51-1.34,6.93-2.75,10.64-3.38,2.24-.38,4.3-1.08,5.99-3.05ZM121.44,174.85c-3.24-1.22-4.47-.37-5.81,1.39-1.94,2.53-3.71,5.19-5.53,7.81-.94,1.35-.84,2.76.21,3.97.61.71,1.38,1.36,2.21,1.78,3.01,1.53,6.23,1.68,9.44.86,1.1-.28,2.19-1,3-1.81.43-.43.23-1.48.32-2.26-.58.21-1.28.3-1.72.67-.55.47-.94.61-1.54.17-1.05-.78-2.2-1.46-3.17-2.33-.37-.33-.65-1.16-.5-1.61.71-2.15,1.6-4.25,2.39-6.37.27-.73.46-1.49.7-2.28ZM240.31,177.89c.1.05.21.1.31.15.12-.15.25-.3.35-.46,1.22-1.82,1.69-1.98,3.73-1.16.4.16.83.33,1.15.61,2.28,1.99,4.53,4,6.8,6,.33.29.7.53,1.09.82,1.3-3.73-2.91-14.69-6.37-16.83-2.83,3.32-5.61,6.67-7.08,10.86ZM26.56,180.1c.08.42,0,1.02.26,1.22,1.5,1.17,2.85,2.6,4.79,3.09.96.24,2.5-.23,2.63-.86.24-1.11.41-2.24.53-3.36.34-3.2.64-6.41.93-9.62.03-.28-.06-.68-.25-.84-.14-.12-.6-.03-.8.12-1.3.94-2.6,1.89-3.84,2.9-2.32,1.9-4.36,4-4.25,7.35ZM241.35,184.09c-.53,1.34-1.19,2.4-1.35,3.54-.35,2.43-.17,4.87.84,7.15.45,1.01.76,1.94-.11,3.03.81.08,1.59.18,2.21-.09,2.94-1.27,5.8-2.68,7.47-5.28-2.69-2.6-5.34-5.17-8.01-7.72-.29-.27-.69-.42-1.05-.64Z"
     id="path3" />
  <path
     class="cls-1"
     d="M347.47,98.31c-12.54-12.57-27.72-20.78-43.78-27.63.02-.13.04-.27.06-.4.91-.52,1.82-1.03,2.72-1.56,9.1-5.39,18.25-10.71,27.28-16.21,7.43-4.53,14.7-9.33,22.11-13.89,1.39-.86,3.1-1.2,4.69-1.71.2-.06.64.24.8.49.98,1.5,1.48,3.13,1.54,4.95.29,8.19-1.68,15.96-4.16,23.67-2.07,6.45-3.87,13-5.99,19.43-1.02,3.09-2.55,6.02-3.82,9.03-.51,1.21-.93,2.45-1.45,3.83Z"
     id="path4" />
  <path
     class="cls-1"
     d="M352.54,103.33c4.89-2.02,9.63-4.02,14.4-5.93,6.48-2.59,13.02-5.04,19.48-7.69,2.68-1.1,5.22-2.55,7.92-3.89,1.4,2.12,2.7,4.16,3.24,6.8.73,3.54.63,7.03.7,10.58.1,5.35-1.34,10.42-2.63,15.5-1.85,7.3-3.98,14.53-5.93,21.81-.6,2.25-1,4.56-1.54,7.09-.09-.22-.13-.34-.18-.44-4.15-8.27-9.59-15.66-15.65-22.59-3.86-4.42-7.97-8.62-11.98-12.91-2.53-2.71-5.08-5.41-7.83-8.33Z"
     id="path5" />
  <path
     class="cls-1"
     d="M296.52,66c-12.66-4.98-25.28-9.33-38.83-10.22,10.39-14.41,20.76-28.81,31.35-43.49.99,1.26,2.09,2.28,2.75,3.54,2.94,5.59,4.89,11.46,5.22,17.86.45,8.91.22,17.8-.45,26.69-.14,1.86-.02,3.75-.02,5.62Z"
     id="path6" />
  <path
     class="cls-1"
     d="M390.91,149.15c3.68,1.85,7.61,3.38,11.03,5.67,4.2,2.8,7.99,6.22,11.94,9.39.78.62,1.43,1.42,2.26,1.96,1.9,1.24,2.06,3.06,1.67,4.96-.54,2.65-1.66,4.96-4.14,6.43-3.71,2.2-7.26,4.67-11.06,6.7-2.29,1.23-4.89,1.91-7.39,2.72-1.08.35-.86-.72-.91-1.24-.37-3.58-.66-7.16-1.01-10.74-.52-5.25-.97-10.5-1.64-15.73-.34-2.64-1.08-5.23-1.67-7.84-.22-.97.02-1.71.92-2.29Z"
     id="path7" />
  <path
     class="cls-1"
     d="M299.41,67.59c.34-3.08.69-5.77.93-8.47.28-3.14.44-6.29.69-9.43.04-.49.12-1.11.43-1.42,2.98-2.95,5.88-5.98,9.06-8.7,2.17-1.86,4.74-3.24,7.11-4.86.56-.38.88-.23,1.31.22,3.03,3.13,4.44,6.92,4.65,11.22.1,2.07.36,4.13.46,6.2.02.3-.35.74-.66.93-3.66,2.27-7.35,4.51-11.02,6.76-3.86,2.36-7.5,5.01-10.8,8.13-.22.21-.74.38-.98.27-.51-.23-.94-.66-1.18-.85Z"
     id="path8" />
  <path
     class="cls-1"
     d="M239.53,242.66c.96-.48,1.92-.95,2.88-1.43,3.9-1.96,7.89-3.77,11.67-5.95,2.42-1.4,4.5-3.38,6.79-5.03,1.74-1.26,3.54-2.45,5.37-3.57.96-.59,1.43-.19,1.7.92.48,2.01-.02,3.9-.62,5.76-1.61,4.97-3.96,9.58-6.93,13.87-1.67,2.42-3.95,4.27-6.25,6.03-2.36,1.8-4.86,3.43-7.4,4.95-1.2.72-2.65,1-3.99,1.48,2.05-3.03,4-5.96,6.01-8.84.81-1.16,1.8-2.19,2.68-3.3.18-.23.4-.57.35-.8-.05-.19-.45-.38-.72-.43-1.35-.24-2.35-.93-2.78-2.24-.23-.69-.6-.67-1.17-.58-1.67.25-3.34.56-5.01.6-.85.02-1.7-.51-2.56-.79,0-.22-.01-.44-.02-.66ZM253.85,240.51c.28.82.52,1.36.64,1.92.17.86.53,1.04,1.19.44,1.03-.93,2.18-1.77,3.03-2.85,1.46-1.83,2.75-3.79,4.06-5.73.15-.22-.03-.65-.05-.98-.31.03-.68-.03-.92.11-.63.39-1.25.81-1.8,1.31-1.42,1.3-2.8,2.64-4.2,3.96-.65.62-1.31,1.22-1.94,1.81Z"
     id="path9" />
  <path
     class="cls-1"
     d="M236.79,15.26c1.48,0,2.88-.15,4.24.03,6.28.81,12.38,2.36,18.44,4.2,2.47.75,5.1.95,7.62,1.58,2.08.52,4.11,1.28,6.13,2.01.92.33,1.22.92.44,1.81-1.34,1.53-2.61,3.11-3.89,4.7-.54.66-1.01.72-1.89.46-5.98-1.77-11.99-3.45-18.01-5.07-1.99-.54-4.06-.8-6.08-1.25-.39-.09-.8-.37-1.05-.68-1.96-2.4-3.89-4.83-5.82-7.26-.04-.05-.04-.15-.13-.51Z"
     id="path10" />
  <path
     class="cls-1"
     d="M351.86,98.36c1.04-2.06,2.2-4.07,3.08-6.19,1.39-3.35,2.62-6.76,3.85-10.17.28-.77.65-1.29,1.36-1.67,3.68-1.99,7.33-4.02,11.03-6.05.9,1.4,1.4,2.77,1.44,4.34.08,3.38.28,6.76.36,10.14,0,.34-.37.87-.7,1-6.87,2.66-13.81,5.14-20.42,8.62Z"
     id="path11" />
  <path
     class="cls-1"
     d="M403.03,149.92c-3.85-1.21-7.63-2.4-11.57-3.64.28-1,.59-2.13.91-3.26.86-3.02,1.76-6.04,2.58-9.07.19-.71.49-.9,1.17-.76,3.13.63,6.26,1.21,9.38,1.88.38.08.88.58.96.96.73,3.67.47,7.2-1.57,10.48-.69,1.11-1.25,2.3-1.85,3.41Z"
     id="path12" />
  <path
     class="cls-1"
     d="M307.7,198.38c.08-.42.1-.94.28-1.39.9-2.28,1.88-4.53,2.76-6.82.27-.7.35-1.5-.4-2.05-1.04-.76-2.09-1.52-3.15-2.25-.83-.58-1.62-.74-2.41.15-.28.32-.77.44-1.26.71-.22-1.34.36-2.15,1.25-2.72,3.36-2.18,9.69-1.59,12.73.97,1.55,1.31,1.64,3.06.36,4.82-1.59,2.18-3.17,4.37-4.69,6.6-1.33,1.95-2.92,3.05-5.48,1.99Z"
     id="path13" />
  <path
     class="cls-1"
     d="M143.02,222.21c-3.66-5.1-7.29-10.17-11.01-15.36,2.54-2.37,5.24-4.89,8.09-7.56,1.94,7.63,2.28,15.31,2.91,22.91Z"
     id="path14" />
  <path
     class="cls-1"
     d="M272.94,233.83c-.31,2.21-.5,4.45-.96,6.63-.69,3.28-1.49,6.54-2.39,9.76-.61,2.18-1.59,4.11-3.4,5.74-3.05,2.76-5.98,5.62-9.82,7.28-2.3.99-4.59,1.91-7.23,1.85-1.47-.03-2.95.66-4.44.98-1.53.32-3.07.61-4.61.85-.43.07-.89-.07-1.51-.12,1.43-1.62,3.22-1.93,4.96-2.23,3.68-.61,7.11-1.82,10.54-3.3,2.48-1.07,4.79-2.25,6.85-3.94,1.77-1.45,3.68-2.83,5.09-4.59,1.07-1.34,1.58-3.19,2.1-4.89,1.36-4.39,2.59-8.83,3.88-13.24.09-.32.29-.6.44-.9l.47.1Z"
     id="path15" />
  <path
     class="cls-1"
     d="M169.56,222.68c-2.6,1.94-5.04,3.76-7.6,5.67-3.88-5.38-3.69-11.61-4.57-17.6,3.26,4.65,7.12,8.66,12.17,11.92Z"
     id="path16" />
  <path
     class="cls-1"
     d="M393.34,203.63c.27-2.19.54-4.11.75-6.04.26-2.41.5-4.83.7-7.25.06-.67.33-.83.97-.89,1.67-.15,2.93.63,4.11,1.63.62.53,1.63,1.12,1.65,1.72.05,1.3-.17,2.74-.73,3.91-.55,1.14-1.57,2.1-2.54,2.97-1.5,1.34-3.14,2.54-4.91,3.95Z"
     id="path17" />
  <path
     class="cls-1"
     d="M164.68,186.65c1.81,4.97,3.04,9.98,1.78,15.27-2.81-4.43-5.59-8.82-8.36-13.21,2.06-.64,4.3-1.35,6.58-2.06Z"
     id="path18" />
  <path
     class="cls-1"
     d="M179.42,179.75c1.92-1.16,3.77-2.28,5.68-3.44,1.6,3.57,2.42,6.98,1.66,10.66-1.15-1.26-2.24-2.55-3.44-3.74-1.19-1.17-2.49-2.23-3.9-3.48Z"
     id="path19" />
  <path
     class="cls-1"
     d="M300.44,37.42c.17-2.56.4-2.69,2.66-1.39,1.07.61,2.15,1.21,3.19,1.87.84.54,1.11,1.16.24,2.01-1.02.99-1.95,2.09-2.92,3.14-.66.71-2.12.36-2.37-.71-.39-1.61-.54-3.27-.79-4.91Z"
     id="path20" />
  <path
     class="cls-1"
     d="M185.36,199.6c-1.03,1.67-1.92,3.11-2.81,4.56l-.42.09c-1.43-2.8-2.87-5.6-4.3-8.39.1-.07.2-.14.3-.2,2.2,1.58,4.03,3.8,7.23,3.95Z"
     id="path21" />
  <path
     d="M65.48,328.25c-.24-5.27.85-10.57,2.43-15.78,2.58-8.51,5.16-17.02,7.89-25.48.86-2.66,2.24-5.16,3.33-7.75.48-1.15.84-2.35,1.27-3.52.37-1,.76-1.08,1.51-.36,5.34,5.15,11.08,9.82,17.39,13.72,4.45,2.74,9.09,5.19,13.72,7.61,3.32,1.73,6.79,3.18,10.17,4.82.74.36,1.34,1,2,1.51-.64.53-1.21,1.17-1.92,1.58-4.77,2.78-9.59,5.45-14.34,8.27-5.65,3.35-11.26,6.77-16.84,10.24-3.59,2.23-7.08,4.62-10.64,6.89-2.96,1.9-5.92,3.82-8.98,5.55-1.29.73-2.84,1.04-4.31,1.4-.35.08-1-.3-1.22-.65-.91-1.42-1.69-2.89-1.5-4.7.11-1.03.02-2.08.02-3.34Z"
     id="path22" />
  <path
     d="M29.98,272.22c-.53-5.57.87-10.89,2.24-16.17,2.07-8,4.37-15.94,6.52-23.92.41-1.5.56-3.08.84-4.62.05-.26.08-.56.23-.77.22-.3.51-.71.81-.74.24-.02.6.4.78.71,2.04,3.38,3.92,6.87,6.12,10.14,2.1,3.12,4.53,6.01,6.82,8.99,5.21,6.79,11.32,12.75,17.34,18.8,1.5,1.51,2.86,3.17,4.3,4.75.69.75.11,1.04-.46,1.29-3.36,1.48-6.69,3.04-10.11,4.39-7.15,2.83-14.37,5.46-21.5,8.34-2.96,1.19-5.75,2.79-8.59,4.26-.81.42-1.18.39-1.81-.41-2.62-3.31-3.36-7.16-3.52-11.21-.05-1.28,0-2.56,0-3.83Z"
     id="path23" />
  <path
     d="M131.21,329.67c0-3.42-.06-6.84.02-10.26.07-3.09.31-6.17.46-9.25.03-.72,0-1.45,0-2.17,0-.95.37-1.21,1.27-.8,6.53,2.95,13.32,5.12,20.28,6.79,3.52.85,7.01,1.86,10.56,2.56,2.12.42,4.32.37,6.48.56.4.04.79.22,1.19.34-.16.34-.27.7-.49,1-3.58,5-7.15,10-10.76,14.97-3.98,5.48-8,10.93-11.98,16.42-2.5,3.45-4.97,6.94-7.43,10.42-.86,1.21-1.23,1.26-2.29.25-2.63-2.51-3.71-5.85-4.89-9.13-.67-1.87-1.25-3.78-1.77-5.7-.25-.94-.33-1.93-.41-2.9-.12-1.54-.22-3.08-.24-4.63-.04-2.82-.01-5.64-.01-8.46Z"
     id="path24" />
  <path
     d="M10.09,203.7c.79-3.28,1.32-6.16,4.28-7.88,4.02-2.34,7.89-4.94,11.91-7.27,1.28-.74,2.86-.98,4.29-1.47.88-.3,1.78-.59,2.62-1,.88-.42,1.23.05,1.33.74.22,1.52.35,3.05.5,4.58.33,3.49.66,6.99.95,10.48.19,2.28.21,4.59.52,6.86.38,2.78.97,5.54,1.52,8.3.31,1.57.73,3.12,1.07,4.68.23,1.05-.14,1.97-.83,2.72-.17.18-.72.2-1,.07-2.97-1.41-6.03-2.67-8.85-4.35-2.99-1.77-5.83-3.82-8.57-5.96-2.95-2.31-5.8-4.77-8.49-7.36-.79-.76-.92-2.22-1.26-3.12Z"
     id="path25" />
  <path
     d="M129.55,306.23c-.33,3.44-.69,6.87-.97,10.31-.21,2.56-.32,5.13-.5,7.69-.03.36-.18.77-.41,1.03-4.73,5.47-10.06,10.22-16.38,13.81-.71.41-1.22.45-1.77-.16-1.76-1.97-3.47-3.99-3.97-6.68-.41-2.23-.67-4.48-.96-6.73-.19-1.44-.41-2.88-.42-4.33,0-.49.48-1.15.94-1.44,2.9-1.84,5.87-3.59,8.79-5.4,3.6-2.22,7.27-4.35,10.39-7.25.84-.78,1.74-1.5,2.54-2.33.6-.63,1.16-.4,1.69-.05.53.36.98.85,1.47,1.29-.14.08-.29.15-.43.23Z"
     id="path26" />
  <path
     d="M186.87,113.38c-1.74,2.37-3.31,4.47-4.83,6.59-1.55,2.17-3.07,4.37-4.65,6.62,1.67.32,3.04,1.19,3.48,2.87,1.82-.2,3.55-.46,5.29-.53.76-.03,1.59.22,2.3.54,1.18.54,1.23,1.52.08,2.13-1.44.77-2.99,1.33-4.46,2.04-2.45,1.17-5,2.18-7.28,3.63-3.29,2.09-6.36,4.53-9.55,6.79-1.46,1.03-3.02,1.93-4.49,2.96-1.45,1.02-2.48-.13-2.46-1.46.02-1.62.01-3.32.46-4.85,1.58-5.45,3.95-10.57,7.51-15.02,3.42-4.28,7.61-7.72,12.48-10.27,1.37-.72,2.85-1.22,4.3-1.76.46-.17.99-.15,1.81-.26ZM173.64,130.56c-3.56,2.38-5.67,5.8-7.66,9.32.09.08.18.17.27.25,2.69-2.41,5.37-4.83,8.07-7.25-.21-.73-.44-1.49-.68-2.32Z"
     id="path27" />
  <path
     d="M55.57,291.14c-.2-1.32-.49-2.63-.57-3.96-.07-1.05.07-2.12.22-3.17.04-.25.44-.54.74-.66,4.53-1.81,9.09-3.54,13.6-5.41,2.09-.87,4.07-2.02,6.11-3.01.32-.15.72-.13,1.08-.19.02.39.17.84.04,1.17-.37.94-.92,1.81-1.3,2.74-1.59,3.82-3.29,7.6-4.66,11.5-.65,1.86-1.57,3.2-3.29,4.1-3.13,1.63-6.22,3.31-9.31,5.01-.78.43-1.17.29-1.56-.5-.66-1.33-1.11-2.65-1.04-4.18.05-1.13-.18-2.28-.29-3.42.08-.01.16-.02.24-.03Z"
     id="path28" />
  <path
     d="M284.24,177.1c1.04-2.01.97-3.84.75-5.74-.73-6.25-1.44-12.51-1.97-18.79-.18-2.12.14-4.3.35-6.44.12-1.19.83-1.44,1.81-.71.5.37,1.06.81,1.31,1.36,1.86,4.12,4.97,7.4,7.39,11.14,1.26,1.94,2.69,3.76,4.07,5.61.53.71.65,1.38,0,2.03-1.6,1.62-3.21,3.24-4.84,4.83-1.15,1.12-2.29,2.26-3.52,3.27-1.35,1.11-2.8,2.09-4.23,3.1-.23.17-.57.18-1.13.34Z"
     id="path29" />
  <path
     d="M256.36,153.98c.98-1.24,1.8-2.66,2.97-3.69,2.53-2.24,5.02-4.57,8.21-5.95.94-.4,1.44-.19,2,.55,2.19,2.89,3.07,6.27,3.64,9.76.66,4.08.7,8.19.25,12.29-.1.89-.44,1.77-.74,2.63-.07.22-.37.5-.57.5-.18,0-.47-.3-.54-.52-1.48-4.69-4.58-8.26-7.98-11.63-.94-.93-1.85-1.87-2.77-2.82-1.54-1.58-2.38-1.76-4.48-1.11Z"
     id="path30" />
  <path
     d="M25.85,222.88c.78.35,1.36.69,1.98.88,2.94.91,5.89,1.79,8.84,2.65.79.23,1.07.49.79,1.42-1.13,3.77-2.14,7.57-3.19,11.37-.43,1.56-.85,1.77-2.87,1.36-2.76-.56-5.5-1.18-8.27-1.64-1.27-.21-1.44-1.1-1.51-1.98-.15-2.06-.55-4.15.18-6.2.42-1.16.77-2.35,1.28-3.47.53-1.17,1.2-2.29,1.85-3.4.21-.36.58-.63.91-.98Z"
     id="path31" />
  <path
     d="M272.91,183.97c-3.47,1.48-6.95,3.05-10.58,3.51-.53-1.34-1.09-2.52-1.46-3.75-.57-1.9-1.3-3.83-1.44-5.78-.2-2.85-.08-5.74.18-8.59.12-1.24.89-2.44,1.43-3.63.28-.62.73-.7,1.16-.06.22.33.51.62.71.96,2.15,3.78,4.27,7.57,6.43,11.34,1.13,1.97,2.32,3.9,3.56,5.99Z"
     id="path32" />
  <path
     d="M191.17,106.23c-1.69,1.97-3.75,2.68-5.99,3.05-3.71.62-7.13,2.04-10.64,3.38-4.56,1.73-7.98,4.75-11.3,7.96-1.22,1.17-1.72,3.2-2.27,4.93-1.24,3.95-2.28,7.97-3.47,11.94-.34,1.12-.9,2.18-1.36,3.26-.13-.01-.27-.03-.4-.04-.08-.51-.23-1.02-.23-1.53,0-4.15.94-8.15,1.98-12.13.55-2.11,1.19-4.23,2.03-6.24.48-1.16,1.33-2.24,2.22-3.15,1.56-1.6,3.24-3.08,4.94-4.53,2.5-2.13,5.34-3.91,8.51-4.46,5.22-.9,10.34-2.68,15.97-2.44Z"
     id="path33" />
  <path
     d="M121.44,174.85c-.24.79-.43,1.55-.7,2.28-.79,2.13-1.68,4.22-2.39,6.37-.15.45.13,1.28.5,1.61.97.87,2.12,1.54,3.17,2.33.6.44.99.3,1.54-.17.44-.38,1.14-.46,1.72-.67-.09.77.11,1.82-.32,2.26-.8.81-1.9,1.53-3,1.81-3.21.81-6.43.66-9.44-.86-.83-.42-1.6-1.07-2.21-1.78-1.05-1.22-1.15-2.62-.21-3.97,1.81-2.62,3.59-5.28,5.53-7.81,1.34-1.75,2.57-2.6,5.81-1.39Z"
     id="path34" />
  <path
     d="M240.31,177.89c1.47-4.19,4.25-7.54,7.08-10.86,3.46,2.14,7.67,13.1,6.37,16.83-.4-.3-.77-.53-1.09-.82-2.27-2-4.52-4.02-6.8-6-.32-.28-.75-.45-1.15-.61-2.05-.81-2.51-.66-3.73,1.16-.11.16-.23.3-.35.46-.1-.05-.21-.1-.31-.15Z"
     id="path35" />
  <path
     d="M26.56,180.1c-.11-3.35,1.93-5.45,4.25-7.35,1.24-1.02,2.54-1.96,3.84-2.9.2-.15.66-.24.8-.12.19.16.28.56.25.84-.29,3.21-.6,6.42-.93,9.62-.12,1.13-.29,2.26-.53,3.36-.14.63-1.67,1.1-2.63.86-1.94-.48-3.3-1.91-4.79-3.09-.25-.2-.18-.8-.26-1.22Z"
     id="path36" />
  <path
     d="M241.35,184.09c.36.21.77.36,1.05.64,2.67,2.55,5.32,5.12,8.01,7.72-1.67,2.6-4.53,4.01-7.47,5.28-.62.27-1.4.17-2.21.09.87-1.09.56-2.02.11-3.03-1.01-2.28-1.19-4.73-.84-7.15.16-1.13.82-2.2,1.35-3.54Z"
     id="path37" />
  <path
     d="M253.85,240.51c.63-.58,1.29-1.19,1.94-1.81,1.4-1.32,2.78-2.67,4.2-3.96.55-.5,1.17-.93,1.8-1.31.24-.15.61-.08.92-.11.03.33.2.77.05.98-1.31,1.94-2.6,3.9-4.06,5.73-.86,1.07-2.01,1.91-3.03,2.85-.66.6-1.01.42-1.19-.44-.11-.56-.36-1.1-.64-1.92Z"
     id="path38" />
  <path
     class="cls-1"
     d="M173.64,130.56c.24.84.47,1.59.68,2.32-2.7,2.42-5.38,4.84-8.07,7.25-.09-.08-.18-.17-.27-.25,1.98-3.52,4.1-6.94,7.66-9.32Z"
     id="path39" />
</svg>
