<?xml version="1.0" standalone="no"?>
<!DOCTYPE svg PUBLIC "-//W3C//DTD SVG 20010904//EN"
 "http://www.w3.org/TR/2001/REC-SVG-20010904/DTD/svg10.dtd">
<svg version="1.0" xmlns="http://www.w3.org/2000/svg"
 width="1787.000000pt" height="1787.000000pt" viewBox="0 0 1787.000000 1787.000000"
 preserveAspectRatio="xMidYMid meet">
<metadata>
Created by potrace 1.14, written by Peter Selinger 2001-2017
</metadata>
<g transform="translate(0.000000,1787.000000) scale(0.100000,-0.100000)"
fill="#000000" stroke="none">
<path d="M8550 16702 c0 -4 -53 -8 -118 -8 -112 -2 -209 -9 -262 -18 -14 -3
-47 -8 -75 -11 -27 -3 -75 -12 -106 -20 -30 -8 -64 -16 -75 -18 -35 -7 -108
-28 -184 -53 -71 -25 -279 -120 -290 -133 -3 -3 -23 -18 -45 -32 -22 -15 -60
-45 -85 -68 -29 -26 -50 -38 -60 -34 -8 3 -37 7 -64 9 -120 6 -335 -143 -475
-329 l-41 -54 -143 -48 c-134 -45 -280 -99 -357 -131 -46 -20 -65 -28 -130
-54 -223 -91 -666 -312 -831 -415 -9 -5 -35 -20 -58 -33 -80 -44 -307 -191
-459 -299 -85 -59 -163 -115 -175 -123 -45 -31 -314 -244 -371 -295 -51 -45
-95 -83 -166 -145 -115 -100 -474 -462 -579 -585 -52 -61 -99 -114 -106 -120
-9 -8 -81 -97 -142 -175 -6 -8 -41 -51 -76 -95 -35 -44 -81 -105 -103 -136
-21 -32 -72 -102 -111 -158 -40 -55 -73 -102 -73 -104 0 -3 -28 -47 -62 -99
-35 -52 -70 -105 -77 -119 -8 -13 -39 -64 -68 -112 -29 -48 -53 -90 -53 -93 0
-3 -8 -18 -19 -32 -34 -50 -200 -369 -256 -493 -21 -46 -56 -122 -78 -169 -21
-47 -57 -130 -78 -185 -22 -55 -44 -109 -48 -120 -17 -38 -44 -111 -86 -235
-24 -69 -60 -159 -80 -200 -79 -162 -179 -502 -200 -687 -4 -31 -36 -136 -45
-148 -7 -10 -34 -99 -79 -265 -11 -41 -31 -128 -45 -193 -13 -65 -25 -119 -27
-120 -2 -1 -24 -12 -49 -23 -37 -18 -141 -94 -235 -172 -11 -10 -65 -53 -120
-97 -111 -88 -165 -142 -165 -165 0 -28 65 -110 87 -110 7 0 13 -4 13 -10 0
-5 5 -10 11 -10 10 0 60 -36 114 -82 11 -10 29 -24 40 -32 18 -13 17 -15 -25
-26 -122 -32 -370 -138 -378 -161 -2 -5 -8 -9 -13 -9 -5 0 -52 -27 -105 -60
-52 -34 -102 -64 -112 -67 -46 -18 -161 -97 -292 -202 -165 -132 -204 -170
-230 -225 -31 -66 -24 -75 192 -263 62 -54 118 -102 124 -108 6 -5 26 -21 44
-35 19 -14 84 -67 144 -119 137 -117 238 -193 350 -261 47 -29 86 -58 86 -64
0 -15 -63 -137 -106 -204 -19 -29 -34 -54 -34 -56 0 -2 -36 -67 -80 -145 -64
-112 -82 -150 -85 -190 -5 -68 17 -84 185 -126 96 -25 126 -30 205 -41 82 -11
88 -11 104 1 11 7 13 7 7 -2 -5 -9 -1 -13 11 -14 10 0 29 -3 43 -5 70 -13 146
-21 154 -16 5 3 7 -2 3 -11 -6 -15 -25 -85 -33 -117 -1 -8 -25 -103 -53 -210
-28 -107 -52 -206 -55 -220 -3 -14 -19 -89 -35 -168 -17 -79 -33 -158 -36
-175 -4 -29 -7 -46 -20 -117 -3 -14 -7 -42 -10 -62 -3 -21 -7 -53 -9 -70 -3
-18 -8 -62 -11 -98 -3 -36 -21 -146 -40 -245 -56 -295 -58 -311 -59 -472 -1
-138 5 -152 68 -158 48 -5 174 26 285 69 49 20 104 38 122 41 75 13 314 77
469 125 91 29 178 56 193 60 24 8 27 6 23 -8 -3 -9 -7 -28 -10 -42 -2 -14 -11
-63 -20 -110 -8 -47 -18 -114 -21 -150 -6 -62 -9 -86 -20 -147 -7 -46 -7 -206
1 -238 12 -49 26 -56 96 -50 112 11 160 25 262 76 56 28 108 56 116 64 8 7 20
14 25 16 6 2 61 35 123 72 71 44 110 73 106 80 -5 9 -4 9 5 1 8 -8 6 -25 -8
-70 -11 -32 -29 -95 -41 -139 -12 -44 -25 -93 -30 -110 -5 -16 -16 -57 -24
-90 -9 -33 -21 -73 -26 -90 -5 -16 -11 -41 -14 -55 -2 -14 -16 -72 -31 -130
-15 -58 -29 -116 -32 -130 -2 -14 -9 -43 -15 -65 -5 -22 -12 -51 -15 -65 -2
-14 -10 -56 -18 -95 -15 -71 -19 -100 -35 -238 -5 -43 -11 -81 -14 -85 -19
-31 -30 -385 -14 -443 8 -27 41 -44 83 -42 11 1 43 3 70 4 87 4 249 54 355
109 30 16 100 47 155 68 212 84 413 185 695 349 266 154 252 146 268 161 7 6
18 12 23 12 5 0 23 10 39 22 16 12 32 20 34 17 2 -2 7 -53 10 -114 3 -60 8
-121 10 -135 3 -14 7 -50 11 -81 3 -31 7 -66 10 -77 2 -11 7 -42 10 -69 27
-193 99 -404 142 -417 37 -11 96 14 249 110 88 54 161 101 164 104 3 4 31 24
63 46 32 21 65 43 72 48 9 7 25 2 52 -16 21 -15 96 -60 167 -101 87 -49 130
-80 132 -93 2 -10 6 -48 9 -84 3 -36 8 -77 10 -92 3 -15 7 -116 9 -225 4 -171
12 -278 31 -408 2 -16 7 -52 10 -80 7 -57 20 -106 41 -152 8 -17 14 -36 14
-42 0 -7 7 -23 16 -36 14 -21 24 -25 65 -25 27 0 49 5 49 10 0 6 5 10 10 10 6
0 44 16 85 35 53 25 93 55 142 103 37 37 89 85 114 105 68 53 258 251 321 333
12 16 25 31 28 34 3 3 16 19 28 37 l23 32 92 -31 c51 -17 101 -34 112 -39 141
-57 682 -202 910 -243 166 -31 323 -58 358 -62 23 -2 56 -7 72 -9 17 -3 55 -7
85 -11 30 -3 66 -7 80 -10 14 -2 52 -7 85 -10 48 -5 76 -16 148 -60 82 -49
174 -91 222 -100 11 -2 42 -8 69 -13 62 -11 135 -6 209 15 31 10 60 15 63 12
2 -3 7 -18 10 -34 16 -92 132 -239 204 -259 19 -6 60 -10 90 -10 30 0 58 -4
62 -10 5 -6 8 -5 8 3 0 8 5 10 12 6 16 -10 69 -11 75 -1 2 4 12 3 22 -3 10 -5
21 -7 23 -4 3 2 47 6 99 9 269 12 467 46 674 116 65 22 76 26 87 28 42 8 241
124 311 180 75 60 90 69 111 62 99 -38 283 59 454 238 39 41 72 79 72 84 0 24
51 51 175 93 163 54 514 191 534 207 8 7 16 11 18 9 3 -3 21 5 178 76 111 51
284 139 302 154 7 6 13 8 13 4 0 -3 18 5 39 18 21 14 41 23 43 20 3 -2 11 2
18 11 7 8 16 15 21 15 5 0 28 12 52 27 23 15 62 38 87 52 116 62 299 179 495
313 115 80 365 264 375 277 3 3 23 19 45 35 31 23 182 150 251 211 6 6 47 41
90 80 138 122 454 445 589 600 71 83 132 152 135 155 3 3 19 23 36 45 16 21
36 47 44 56 8 9 33 40 55 69 22 29 54 69 70 90 17 21 48 63 70 95 22 31 63 88
90 126 64 88 262 396 305 474 18 33 36 65 40 70 50 68 273 511 378 750 52 118
172 431 172 447 0 8 3 18 7 22 4 3 8 12 9 19 9 44 55 152 80 187 9 13 68 146
70 160 0 3 3 12 7 20 8 20 68 219 72 239 2 9 11 45 20 81 10 36 19 75 20 87 2
11 5 29 8 40 3 10 9 43 12 73 4 30 20 87 36 127 16 41 29 80 29 88 0 9 4 23
10 33 11 19 71 257 95 377 23 112 21 110 63 124 30 11 117 72 179 126 6 5 26
21 44 35 18 14 37 30 43 35 6 6 29 23 51 39 22 16 45 34 50 40 6 7 28 25 50
41 57 42 115 107 115 128 0 28 -50 84 -105 120 -27 17 -59 40 -70 50 -11 11
-40 33 -64 50 -39 27 -42 31 -25 37 10 4 57 19 104 35 113 36 230 92 370 178
63 38 140 83 170 100 66 35 177 108 205 134 11 10 65 55 120 98 168 135 201
176 196 247 -1 17 -60 81 -137 148 -109 96 -183 159 -258 219 -46 36 -111 91
-145 121 -91 81 -238 188 -331 244 -98 58 -97 50 -8 206 209 360 229 400 233
449 4 37 0 52 -13 63 -32 28 -254 90 -362 102 -97 11 -146 17 -180 23 -49 8
-69 11 -118 14 -34 2 -41 6 -37 19 60 190 202 810 230 1005 3 22 8 54 12 70 3
17 7 48 9 70 7 107 15 157 54 360 17 88 33 178 36 200 3 22 7 47 9 55 3 8 7
78 10 156 5 125 4 144 -12 163 -21 26 -74 33 -136 19 -23 -5 -51 -11 -61 -14
-35 -7 -121 -37 -156 -54 -28 -14 -118 -38 -205 -56 -82 -16 -436 -119 -533
-154 -66 -24 -65 -24 -57 -1 6 20 12 46 20 96 3 17 7 44 10 60 7 38 11 68 25
190 7 55 14 103 16 106 2 4 5 54 5 110 1 74 -3 115 -14 141 l-15 37 -82 -5
c-79 -4 -175 -30 -235 -64 -16 -9 -59 -33 -95 -52 -36 -20 -105 -61 -155 -92
-49 -31 -97 -59 -105 -63 -8 -4 -21 -13 -29 -20 -7 -8 -15 -12 -17 -11 -1 2 8
42 22 88 14 47 27 92 29 100 2 8 8 26 13 40 5 14 10 27 10 30 0 9 22 94 37
140 7 25 16 56 19 70 3 14 16 70 30 125 39 156 77 317 82 350 3 17 9 46 14 65
10 40 37 214 38 248 1 13 6 47 12 75 5 29 12 61 14 73 4 21 19 191 18 209 -3
62 -13 183 -18 197 -5 17 -59 34 -99 31 -11 -1 -45 -4 -76 -7 -86 -7 -222 -52
-346 -114 -43 -22 -89 -43 -103 -47 -100 -31 -462 -204 -615 -294 -44 -26
-107 -63 -140 -81 -33 -18 -62 -36 -65 -39 -3 -4 -16 -12 -30 -19 -14 -6 -32
-16 -40 -22 -76 -51 -196 -117 -201 -112 -4 4 -10 50 -13 102 -4 52 -8 111
-10 130 -3 19 -7 60 -10 90 -7 62 -36 242 -41 250 -2 3 -6 21 -9 41 -9 56 -55
196 -77 234 -11 19 -29 37 -39 40 -22 7 -110 -14 -110 -26 0 -5 -4 -9 -10 -9
-5 0 -29 -13 -52 -29 -24 -16 -83 -55 -133 -85 -49 -31 -99 -62 -110 -69 -10
-6 -48 -33 -84 -59 -35 -27 -67 -48 -71 -48 -4 0 -18 8 -31 18 -22 17 -208
127 -268 158 -13 7 -25 23 -27 36 -1 13 -5 55 -8 93 -4 39 -9 84 -11 100 -3
17 -8 120 -10 230 -5 201 -8 239 -19 306 -3 20 -8 62 -11 95 -10 104 -23 159
-57 245 l-33 84 -41 3 c-68 5 -215 -71 -299 -155 -37 -38 -78 -75 -92 -84 -48
-32 -208 -194 -313 -318 -25 -29 -52 -61 -60 -71 -8 -9 -25 -31 -38 -48 l-24
-30 -171 58 c-247 84 -628 191 -801 224 -11 2 -43 10 -71 16 -27 6 -72 15
-100 20 -27 5 -104 18 -170 30 -66 12 -138 23 -160 26 -22 3 -56 7 -75 10 -19
3 -55 7 -80 10 -25 2 -58 6 -75 9 -16 3 -52 7 -79 10 -33 4 -68 19 -109 45
-55 36 -163 93 -212 111 -109 41 -258 43 -351 4 -27 -11 -36 -11 -39 -2 -2 7
-9 30 -16 52 -7 22 -21 58 -33 80 -25 50 -115 141 -153 156 -15 6 -77 13 -138
16 -60 2 -116 6 -122 8 -7 3 -13 1 -13 -3z"/>
</g>
</svg>
