<svg width="100%" height="100%" viewBox="0 0 40 40" fill="none" xmlns="http://www.w3.org/2000/svg">
<path d="M18.3327 24.708V29.9997C18.3327 30.4719 18.4924 30.8677 18.8118 31.1872C19.1313 31.5066 19.5271 31.6663 19.9993 31.6663C20.4716 31.6663 20.8674 31.5066 21.1868 31.1872C21.5063 30.8677 21.666 30.4719 21.666 29.9997V24.708L23.166 26.208C23.3327 26.3747 23.5202 26.4997 23.7285 26.583C23.9368 26.6663 24.1452 26.7011 24.3535 26.6872C24.5618 26.6733 24.7632 26.6247 24.9577 26.5413C25.1521 26.458 25.3327 26.333 25.4993 26.1663C25.8049 25.833 25.9646 25.4441 25.9785 24.9997C25.9924 24.5552 25.8327 24.1663 25.4993 23.833L21.166 19.4997C20.9993 19.333 20.8188 19.215 20.6243 19.1455C20.4299 19.0761 20.2216 19.0413 19.9993 19.0413C19.7771 19.0413 19.5688 19.0761 19.3743 19.1455C19.1799 19.215 18.9993 19.333 18.8327 19.4997L14.4993 23.833C14.166 24.1663 14.0063 24.5552 14.0202 24.9997C14.0341 25.4441 14.2077 25.833 14.541 26.1663C14.8743 26.4719 15.2632 26.6316 15.7077 26.6455C16.1521 26.6594 16.541 26.4997 16.8743 26.1663L18.3327 24.708ZM9.99935 36.6663C9.08268 36.6663 8.29796 36.34 7.64518 35.6872C6.9924 35.0344 6.66602 34.2497 6.66602 33.333V6.66634C6.66602 5.74967 6.9924 4.96495 7.64518 4.31217C8.29796 3.6594 9.08268 3.33301 9.99935 3.33301H21.9577C22.4021 3.33301 22.8257 3.41634 23.2285 3.58301C23.6313 3.74967 23.9855 3.98579 24.291 4.29134L32.3743 12.3747C32.6799 12.6802 32.916 13.0344 33.0827 13.4372C33.2493 13.84 33.3327 14.2636 33.3327 14.708V33.333C33.3327 34.2497 33.0063 35.0344 32.3535 35.6872C31.7007 36.34 30.916 36.6663 29.9993 36.6663H9.99935ZM21.666 13.333C21.666 13.8052 21.8257 14.2011 22.1452 14.5205C22.4646 14.84 22.8605 14.9997 23.3327 14.9997H29.9993L21.666 6.66634V13.333Z" fill="currentColor"/>
</svg>
