<svg width="100%" height="100%" viewBox="0 0 24 24" fill="none" xmlns="http://www.w3.org/2000/svg">
<path d="M1.73 20.25L11.13 3.98C11.51 3.32 12.49 3.32 12.87 3.98L22.27 20.25C22.65 20.92 22.17 21.75 21.4 21.75H2.6C1.83 21.75 1.35 20.92 1.73 20.25ZM12 9C11.45 9 11 9.45 11 10V14C11 14.55 11.45 15 12 15C12.55 15 13 14.55 13 14V10C13 9.45 12.55 9 12 9ZM12 18.25C12.69 18.25 13.25 17.69 13.25 17C13.25 16.31 12.69 15.75 12 15.75C11.31 15.75 10.75 16.31 10.75 17C10.75 17.69 11.31 18.25 12 18.25Z" fill="currentColor"/>
</svg>
