<svg width="100%" height="100%" viewBox="0 0 24 24" fill="none" xmlns="http://www.w3.org/2000/svg">
<path d="M22 19.7778V4.22222C22 3 21 2 19.7778 2H4.22222C3 2 2 3 2 4.22222V19.7778C2 21 3 22 4.22222 22H19.7778C21 22 22 21 22 19.7778ZM8.55556 14.2L10.8889 17.0111L14.3333 12.5778C14.5556 12.2889 15 12.2889 15.2222 12.5889L19.1222 17.7889C19.4 18.1556 19.1333 18.6778 18.6778 18.6778H5.35556C4.88889 18.6778 4.63333 18.1444 4.92222 17.7778L7.68889 14.2222C7.9 13.9333 8.32222 13.9222 8.55556 14.2Z" fill="currentColor"/>
</svg>
