<svg width="100%" height="100%" viewBox="0 0 24 24" fill="none" xmlns="http://www.w3.org/2000/svg">
<path d="M10.2922 19.6079C10.6156 18.2622 10.5373 16.8853 10.6417 15.524C10.6834 14.992 10.5269 14.7521 9.97926 14.726C8.02338 14.6217 6.42738 13.7559 4.96177 12.4989C3.57961 11.3097 2.80768 9.79199 2.21309 8.1334C2.02011 7.59619 2.0149 7.02768 1.94709 6.47482C1.76976 5.00922 2.46345 4.17471 3.93949 4.25816C5.45726 4.34682 6.93851 4.70149 8.24765 5.55165C8.71707 5.85415 9.20734 6.1358 9.70805 6.39137C11.2675 7.19458 12.0551 8.62368 12.5454 10.1779C13.2704 12.4781 13.3277 14.8825 13.2286 17.2713C13.1817 18.3196 13.5103 19.3262 13.4112 20.3694C13.3486 21.0266 13.2964 21.6942 12.681 22.0593C11.8256 22.5652 11.0068 22.2314 10.6364 21.2613C10.4382 20.7345 10.2974 20.1868 10.2974 19.6131L10.2922 19.6079Z" fill="currentColor"/>
<path d="M19.9726 1.93209C21.8242 1.78084 22.2154 3.06389 22.0433 4.43561C21.7147 7.04345 20.3377 8.98368 18.3923 10.5797C17.6308 11.2056 16.7806 11.7636 15.8053 12.0348C14.5535 12.3791 14.0841 12.0348 14.0528 10.7518C14.0215 9.45831 13.2809 8.50384 12.5559 7.53894C11.6901 6.38628 11.737 6.11506 12.7385 5.06671C14.7152 2.99087 17.1822 2.09899 19.9726 1.9373V1.93209Z" fill="currentColor"/>
</svg>
