<?xml version="1.0" encoding="UTF-8" standalone="no"?>
<svg
   viewBox="0 0 1360 400"
   version="1.1"
   id="svg68"
   sodipodi:docname="placeholder_banner.svg"
   width="1360"
   height="400"
   inkscape:version="1.1.2 (0a00cf5339, 2022-02-04)"
   xmlns:inkscape="http://www.inkscape.org/namespaces/inkscape"
   xmlns:sodipodi="http://sodipodi.sourceforge.net/DTD/sodipodi-0.dtd"
   xmlns="http://www.w3.org/2000/svg"
   xmlns:svg="http://www.w3.org/2000/svg">
  <defs
     id="defs72" />
  <sodipodi:namedview
     id="namedview70"
     pagecolor="#ffffff"
     bordercolor="#666666"
     borderopacity="1.0"
     inkscape:pageshadow="2"
     inkscape:pageopacity="0.0"
     inkscape:pagecheckerboard="0"
     showgrid="false"
     width="1360px"
     inkscape:zoom="0.95038416"
     inkscape:cx="505.05892"
     inkscape:cy="187.29268"
     inkscape:window-width="2560"
     inkscape:window-height="1403"
     inkscape:window-x="0"
     inkscape:window-y="0"
     inkscape:window-maximized="1"
     inkscape:current-layer="svg68" />
  <!--!Font Awesome Free 7.0.1 by @fontawesome - https://fontawesome.com License - https://fontawesome.com/license/free Copyright 2025 Fonticons, Inc.-->
  <path
     d="m 643.1,69 c -10.9,0 -21.2,5.50781 -27.3,14.58984 L 600.6,106.5 h -33.1 c -20.7,0 -37.5,16.8164 -37.5,37.49999 v 149.99999 c 0,20.6836 16.8,37.50002 37.5,37.50002 h 225 c 20.7,0 37.5,-16.81642 37.5,-37.50002 V 143.99999 C 830,123.3164 813.2,106.5 792.5,106.5 H 759.4 L 744.2,83.58984 C 738.1,74.50781 727.8,69 716.9,69 Z m -3.9,30.23437 c 0.9,-1.28906 2.4,-2.10937 3.9,-2.10937 h 73.7 c 1.6,0 3,0.76172 3.9,2.10937 l 19.5,29.17968 c 2.6,3.92579 6.9,6.26953 11.7,6.26953 h 40.6 c 5.2,0 9.4,4.21875 9.4,9.375 v 149.99999 c 0,5.15627 -4.2,9.375 -9.4,9.375 l -225,-0.0587 c -5.2,0 -9.4,-4.21874 -9.4,-9.375 V 143.99999 c 0,-5.15625 4.2,-9.37501 9.4,-9.37501 h 40.6 c 4.7,0 9.1,-2.34374 11.7,-6.26953 L 639.3,99.17578 Z M 680,275.24998 c 36.3,0 65.6,-29.35547 65.6,-65.62499 0,-36.26953 -29.3,-65.625 -65.6,-65.625 -36.3,0 -65.6,29.35547 -65.6,65.625 0,36.26952 29.3,65.62499 65.6,65.62499 z m -37.5,-65.62499 c 0,-20.6836 16.8,-37.49999 37.5,-37.49999 20.7,0 37.5,16.81639 37.5,37.49999 0,20.68359 -16.8,37.50001 -37.5,37.50001 -20.7,0 -37.5,-16.81642 -37.5,-37.50001 z"
     id="path66"
     style="fill:#ccd1e9;fill-opacity:1;stroke-width:0.585938" />
</svg>
